<?xml version="1.0" encoding="utf-8"?>
<!-- Generator: Adobe Illustrator 23.0.4, SVG Export Plug-In . SVG Version: 6.00 Build 0)  -->
<svg version="1.1" id="Capa_1" xmlns="http://www.w3.org/2000/svg" xmlns:xlink="http://www.w3.org/1999/xlink" x="0px" y="0px"
	 width="102px" height="102px" viewBox="0 0 102 102" style="enable-background:new 0 0 102 102;" xml:space="preserve">
<style type="text/css">
	.st0{fill:#BF0D15;}
	.st1{fill:#FFFFFF;}
	.st2{fill:none;stroke:#BF0D15;stroke-width:0.244;stroke-miterlimit:10;}
</style>
<path class="st0" d="M100.7,51.6c0,27.2-22,49.2-49.2,49.2c-27.2,0-49.2-22-49.2-49.2c0-27.2,22-49.2,49.2-49.2
	C78.6,2.4,100.7,24.4,100.7,51.6"/>
<path class="st1" d="M79.1,61v-2.7c0-0.5-0.4-0.9-0.9-0.9s-0.9,0.4-0.9,0.9V61h-8.8v-8.2c0-1.2-1-2.2-2.2-2.2h-4v-8.8h7.8
	c4,0,7.3,3.3,7.3,7.3v9.8c0,0.5,0.4,0.9,0.9,0.9s0.9-0.4,0.9-0.9v-9.8c0-5-4.1-9.2-9.2-9.2h-8c-0.6-1.8-2.3-3.1-4.4-3.1h-3v-3.5
	c1.2-0.1,2.3-0.9,2.6-2.1h9.2c1.7,0,3.2-1.5,3.2-3.2c0-1.8-1.4-3.2-3.2-3.2h-9.2c-0.3-1.2-1.4-2.1-2.7-2.1h-6
	c-1.3,0-2.4,0.9-2.7,2.1h-9.2c-1.7,0-3.2,1.4-3.2,3.2c0,1.8,1.4,3.2,3.2,3.2h9.2c0.3,1.2,1.3,2.1,2.6,2.1v3.5h-3
	c-2,0-3.8,1.3-4.4,3.1H34c-0.4-1.1-1.4-1.8-2.6-1.8c-1.2,0-2.2,0.8-2.6,1.8h-9.6c-0.5,0-0.9,0.4-0.9,0.9c0,0.5,0.4,0.9,0.9,0.9h9.5
	v8.8h-9.5c-0.5,0-0.9,0.4-0.9,0.9c0,0.5,0.4,0.9,0.9,0.9h9.6c0.4,1.1,1.4,1.8,2.6,1.8c1.2,0,2.2-0.8,2.6-1.8h6.9
	c0.6,1.8,2.3,3.2,4.4,3.2h8.9c0.5,0,0.9-0.4,0.9-0.9c0-0.5-0.4-0.9-0.9-0.9h-8.9c-1.4,0-2.5-1-2.7-2.3c0,0,0,0,0,0
	c0-0.2,0-10.1,0-10.4c0,0,0,0,0,0c0.2-1.3,1.3-2.3,2.7-2.3h12.3c1.4,0,2.5,1,2.7,2.3c0,0,0,0,0,0c0.1,1.2,0.1,9.4,0,10.4
	c0,0,0,0,0,0c-0.2,1.3-1.3,2.3-2.7,2.3h-6.5c-0.5,0-0.9,0.4-0.9,0.9c0,0.5,0.4,0.9,0.9,0.9h6.5c2,0,3.8-1.3,4.4-3.2h4.3
	c0.2,0,0.4,0.2,0.4,0.4V61c-1,0-1.8,0.8-1.8,1.8v1.8c0,1,0.8,1.9,1.8,1.9H79c1,0,1.9-0.8,1.9-1.9v-1.8C80.9,61.8,80.1,61,79.1,61
	 M57.1,26.7h9.1c0.7,0,1.3,0.6,1.3,1.3c0,0.7-0.6,1.3-1.3,1.3h-9.1V26.7z M45.6,29.4h-9.1c-0.7,0-1.3-0.6-1.3-1.3
	c0-0.7,0.6-1.4,1.3-1.3h9.1V29.4z M32.3,51.5c0,0.5-0.4,0.9-0.9,0.9c-0.5,0-0.9-0.4-0.9-0.9V40.9c0-0.5,0.4-0.9,0.9-0.9
	c0.5,0,0.9,0.4,0.9,0.9V51.5z M40.6,50.6h-6.5v-8.8h6.5V50.6z M52.7,36.8h-2.6v-3.5h2.6V36.8z M48.4,31.5c-0.5,0-0.9-0.4-0.9-0.9
	v-5.1c0-0.5,0.4-0.9,0.9-0.9h6c0.5,0,0.9,0.4,0.9,0.9v5.1c0,0.5-0.4,0.9-0.9,0.9H48.4z M79.1,64.7C79.1,64.7,79,64.7,79.1,64.7
	l-12.5,0c0,0,0,0,0,0v-1.8c0,0,0,0,0,0H79c0,0,0,0,0,0V64.7z M73.7,69.7c-0.5-0.5-1.3-0.5-1.8,0c-1.7,1.7-5.8,6-5.8,9
	c0,3.7,3,6.7,6.7,6.7c3.7,0,6.7-3,6.7-6.7C79.5,75.7,75.4,71.4,73.7,69.7 M72.8,83.5c-2.7,0-4.8-2.2-4.8-4.8c0-1.1,1.3-3.7,4.8-7.3
	c3.6,3.6,4.8,6.2,4.8,7.3C77.6,81.4,75.5,83.5,72.8,83.5"/>
<path class="st2" d="M79.1,61v-2.7c0-0.5-0.4-0.9-0.9-0.9s-0.9,0.4-0.9,0.9V61h-8.8v-8.2c0-1.2-1-2.2-2.2-2.2h-4v-8.8h7.8
	c4,0,7.3,3.3,7.3,7.3v9.8c0,0.5,0.4,0.9,0.9,0.9s0.9-0.4,0.9-0.9v-9.8c0-5-4.1-9.2-9.2-9.2h-8c-0.6-1.8-2.3-3.1-4.4-3.1h-3v-3.5
	c1.2-0.1,2.3-0.9,2.6-2.1h9.2c1.7,0,3.2-1.5,3.2-3.2c0-1.8-1.4-3.2-3.2-3.2h-9.2c-0.3-1.2-1.4-2.1-2.7-2.1h-6
	c-1.3,0-2.4,0.9-2.7,2.1h-9.2c-1.7,0-3.2,1.4-3.2,3.2c0,1.8,1.4,3.2,3.2,3.2h9.2c0.3,1.2,1.3,2.1,2.6,2.1v3.5h-3
	c-2,0-3.8,1.3-4.4,3.1H34c-0.4-1.1-1.4-1.8-2.6-1.8c-1.2,0-2.2,0.8-2.6,1.8h-9.6c-0.5,0-0.9,0.4-0.9,0.9c0,0.5,0.4,0.9,0.9,0.9h9.5
	v8.8h-9.5c-0.5,0-0.9,0.4-0.9,0.9c0,0.5,0.4,0.9,0.9,0.9h9.6c0.4,1.1,1.4,1.8,2.6,1.8c1.2,0,2.2-0.8,2.6-1.8h6.9
	c0.6,1.8,2.3,3.2,4.4,3.2h8.9c0.5,0,0.9-0.4,0.9-0.9c0-0.5-0.4-0.9-0.9-0.9h-8.9c-1.4,0-2.5-1-2.7-2.3c0,0,0,0,0,0
	c0-0.2,0-10.1,0-10.4c0,0,0,0,0,0c0.2-1.3,1.3-2.3,2.7-2.3h12.3c1.4,0,2.5,1,2.7,2.3c0,0,0,0,0,0c0.1,1.2,0.1,9.4,0,10.4
	c0,0,0,0,0,0c-0.2,1.3-1.3,2.3-2.7,2.3h-6.5c-0.5,0-0.9,0.4-0.9,0.9c0,0.5,0.4,0.9,0.9,0.9h6.5c2,0,3.8-1.3,4.4-3.2h4.3
	c0.2,0,0.4,0.2,0.4,0.4V61c-1,0-1.8,0.8-1.8,1.8v1.8c0,1,0.8,1.9,1.8,1.9H79c1,0,1.9-0.8,1.9-1.9v-1.8C80.9,61.8,80.1,61,79.1,61z
	 M57.1,26.7h9.1c0.7,0,1.3,0.6,1.3,1.3c0,0.7-0.6,1.3-1.3,1.3h-9.1V26.7z M45.6,29.4h-9.1c-0.7,0-1.3-0.6-1.3-1.3
	c0-0.7,0.6-1.4,1.3-1.3h9.1V29.4z M32.3,51.5c0,0.5-0.4,0.9-0.9,0.9c-0.5,0-0.9-0.4-0.9-0.9V40.9c0-0.5,0.4-0.9,0.9-0.9
	c0.5,0,0.9,0.4,0.9,0.9V51.5z M40.6,50.6h-6.5v-8.8h6.5V50.6z M52.7,36.8h-2.6v-3.5h2.6V36.8z M48.4,31.5c-0.5,0-0.9-0.4-0.9-0.9
	v-5.1c0-0.5,0.4-0.9,0.9-0.9h6c0.5,0,0.9,0.4,0.9,0.9v5.1c0,0.5-0.4,0.9-0.9,0.9H48.4z M79.1,64.7C79.1,64.7,79,64.7,79.1,64.7
	l-12.5,0c0,0,0,0,0,0v-1.8c0,0,0,0,0,0H79c0,0,0,0,0,0V64.7z M73.7,69.7c-0.5-0.5-1.3-0.5-1.8,0c-1.7,1.7-5.8,6-5.8,9
	c0,3.7,3,6.7,6.7,6.7c3.7,0,6.7-3,6.7-6.7C79.5,75.7,75.4,71.4,73.7,69.7z M72.8,83.5c-2.7,0-4.8-2.2-4.8-4.8c0-1.1,1.3-3.7,4.8-7.3
	c3.6,3.6,4.8,6.2,4.8,7.3C77.6,81.4,75.5,83.5,72.8,83.5z"/>
</svg>
