<?xml version="1.0" encoding="utf-8"?>
<!-- Generator: Adobe Illustrator 23.0.4, SVG Export Plug-In . SVG Version: 6.00 Build 0)  -->
<svg version="1.1" id="Capa_1" xmlns="http://www.w3.org/2000/svg" xmlns:xlink="http://www.w3.org/1999/xlink" x="0px" y="0px"
	 width="102px" height="102px" viewBox="0 0 102 102" style="enable-background:new 0 0 102 102;" xml:space="preserve">
<style type="text/css">
	.st0{fill:#BF0D15;}
	.st1{fill-rule:evenodd;clip-rule:evenodd;fill:#FFFFFF;}
	.st2{fill:#FFFFFF;}
</style>
<path class="st0" d="M386.1,1343c0,27.2-22,49.2-49.2,49.2c-27.2,0-49.2-22-49.2-49.2c0-27.2,22-49.2,49.2-49.2
	C364.1,1293.8,386.1,1315.8,386.1,1343"/>
<path class="st1" d="M314,1322v9.1c0,0.7,0.3,1.3,0.7,1.8c0.5,0.5,1.1,0.7,1.8,0.7h37.9c0.7,0,1.3-0.3,1.8-0.7
	c0.5-0.5,0.7-1.1,0.7-1.8v-2.8v-3.5v-2.8c0-0.7-0.3-1.3-0.7-1.8c-0.5-0.5-1.1-0.7-1.8-0.7h-37.9c-0.7,0-1.3,0.3-1.8,0.7l0,0
	C314.2,1320.7,314,1321.3,314,1322 M337.7,1351.7c0.6,0.2,1.2,0.5,1.7,1c0.7,0.7,1.1,1.6,1.1,2.7v16.6c0,1-0.4,2-1.1,2.7l0,0
	c-0.7,0.7-1.6,1.1-2.7,1.1h-2.5c-1,0-2-0.4-2.7-1.1c-0.7-0.7-1.1-1.6-1.1-2.7v-16.6c0-1,0.4-2,1.1-2.7v0l0,0l0,0
	c0.5-0.5,1-0.8,1.7-1v-8.4v-1.6c0-0.3,0.3-0.6,0.6-0.6h1.6h24.7v-12.1h-2v2.2c0,1-0.4,2-1.1,2.7c-0.7,0.7-1.6,1.1-2.7,1.1h-37.9
	c-1,0-2-0.4-2.7-1.1c-0.7-0.7-1.1-1.6-1.1-2.7v-9.1c0-1,0.4-2,1.1-2.7l0,0c0.7-0.7,1.6-1.1,2.7-1.1h37.9c1,0,2,0.4,2.7,1.1h0l0,0
	c0.7,0.7,1.1,1.6,1.1,2.7v2.2h5.9c0.3,0,0.6,0.3,0.6,0.6v1.6v1.8v15v1.6c0,0.3-0.3,0.6-0.6,0.6h-1.6h-24.7V1351.7z M334.2,1352.8
	c-0.7,0-1.3,0.3-1.8,0.7l0,0c-0.5,0.5-0.7,1.1-0.7,1.8v16.6c0,0.7,0.3,1.3,0.7,1.8c0.5,0.5,1.1,0.7,1.8,0.7h2.5
	c0.7,0,1.3-0.3,1.8-0.7l0,0c0.5-0.5,0.7-1.1,0.7-1.8v-16.6c0-0.7-0.3-1.3-0.7-1.8c-0.5-0.5-1.1-0.7-1.8-0.7H334.2z M334.4,1351.5
	v-8.3v-1h1h25.3c0.3,0,0.6-0.3,0.6-0.6v-13.4c0-0.3-0.3-0.6-0.6-0.6h-2.6v-2.2h5.2v1v1.8v15v1h-1h-25.3c-0.3,0-0.6,0.3-0.6,0.6v6.6
	H334.4z"/>
<path class="st0" d="M386.1,1343c0,27.2-22,49.2-49.2,49.2c-27.2,0-49.2-22-49.2-49.2c0-27.2,22-49.2,49.2-49.2
	C364.1,1293.8,386.1,1315.8,386.1,1343"/>
<path class="st1" d="M314,1322v9.1c0,0.7,0.3,1.3,0.7,1.8c0.5,0.5,1.1,0.7,1.8,0.7h37.9c0.7,0,1.3-0.3,1.8-0.7
	c0.5-0.5,0.7-1.1,0.7-1.8v-2.8v-3.5v-2.8c0-0.7-0.3-1.3-0.7-1.8c-0.5-0.5-1.1-0.7-1.8-0.7h-37.9c-0.7,0-1.3,0.3-1.8,0.7l0,0
	C314.2,1320.7,314,1321.3,314,1322 M337.7,1351.7c0.6,0.2,1.2,0.5,1.7,1c0.7,0.7,1.1,1.6,1.1,2.7v16.6c0,1-0.4,2-1.1,2.7l0,0
	c-0.7,0.7-1.6,1.1-2.7,1.1h-2.5c-1,0-2-0.4-2.7-1.1c-0.7-0.7-1.1-1.6-1.1-2.7v-16.6c0-1,0.4-2,1.1-2.7v0l0,0l0,0
	c0.5-0.5,1-0.8,1.7-1v-8.4v-1.6c0-0.3,0.3-0.6,0.6-0.6h1.6h24.7v-12.1h-2v2.2c0,1-0.4,2-1.1,2.7c-0.7,0.7-1.6,1.1-2.7,1.1h-37.9
	c-1,0-2-0.4-2.7-1.1c-0.7-0.7-1.1-1.6-1.1-2.7v-9.1c0-1,0.4-2,1.1-2.7l0,0c0.7-0.7,1.6-1.1,2.7-1.1h37.9c1,0,2,0.4,2.7,1.1h0l0,0
	c0.7,0.7,1.1,1.6,1.1,2.7v2.2h5.9c0.3,0,0.6,0.3,0.6,0.6v1.6v1.8v15v1.6c0,0.3-0.3,0.6-0.6,0.6h-1.6h-24.7V1351.7z M334.2,1352.8
	c-0.7,0-1.3,0.3-1.8,0.7l0,0c-0.5,0.5-0.7,1.1-0.7,1.8v16.6c0,0.7,0.3,1.3,0.7,1.8c0.5,0.5,1.1,0.7,1.8,0.7h2.5
	c0.7,0,1.3-0.3,1.8-0.7l0,0c0.5-0.5,0.7-1.1,0.7-1.8v-16.6c0-0.7-0.3-1.3-0.7-1.8c-0.5-0.5-1.1-0.7-1.8-0.7H334.2z M334.4,1351.5
	v-8.3v-1h1h25.3c0.3,0,0.6-0.3,0.6-0.6v-13.4c0-0.3-0.3-0.6-0.6-0.6h-2.6v-2.2h5.2v1v1.8v15v1h-1h-25.3c-0.3,0-0.6,0.3-0.6,0.6v6.6
	H334.4z"/>
<g>
	<path class="st0" d="M100.2,51c0,27.2-22,49.2-49.2,49.2c-27.2,0-49.2-22-49.2-49.2c0-27.2,22-49.2,49.2-49.2
		C78.2,1.8,100.2,23.8,100.2,51"/>
	<path class="st2" d="M78.3,29.6c0-1.4-1.1-2.5-2.5-2.5h-5.3v-1.6c0-1.1-0.9-1.9-1.9-1.9h-11c-1.1,0-1.9,0.9-1.9,1.9v1.6h-9.3v-1.6
		c0-1.1-0.9-1.9-1.9-1.9h-11c-1.1,0-1.9,0.9-1.9,1.9v1.6h-5.3c-1.4,0-2.5,1.1-2.5,2.5v5.3c0,0.6,0.2,1.2,0.7,1.7
		c-0.4,0.4-0.7,1-0.7,1.7v32.6c0,1.4,1.1,2.5,2.5,2.5h0.3v2.4c0,1.4,1.1,2.5,2.5,2.5h32.7c0.4,0,0.8-0.4,0.8-0.8s-0.4-0.8-0.8-0.8
		H29c-0.5,0-0.9-0.4-0.9-0.9v-2.4H74v2.4c0,0.5-0.4,0.9-0.9,0.9H57.5c-0.4,0-0.8,0.4-0.8,0.8s0.4,0.8,0.8,0.8h15.7
		c1.4,0,2.5-1.1,2.5-2.5v-2.4h0.3c1.4,0,2.5-1.1,2.5-2.5V38.2c0-0.6-0.2-1.2-0.7-1.7c0.4-0.4,0.7-1,0.7-1.7V29.6z M57.4,25.5
		c0-0.2,0.1-0.3,0.3-0.3h11c0.2,0,0.3,0.1,0.3,0.3v1.6H57.4V25.5z M33.2,25.5c0-0.2,0.1-0.3,0.3-0.3h11c0.2,0,0.3,0.1,0.3,0.3v1.6
		H33.2V25.5z M76.7,70.8c0,0.5-0.4,0.9-0.9,0.9H26.3c-0.5,0-0.9-0.4-0.9-0.9V38.2c0-0.5,0.4-0.9,0.9-0.9h49.6c0.5,0,0.9,0.4,0.9,0.9
		V70.8z M76.7,34.9c0,0.5-0.4,0.9-0.9,0.9H26.3c-0.5,0-0.9-0.4-0.9-0.9v-5.3c0-0.5,0.4-0.9,0.9-0.9h49.6c0.5,0,0.9,0.4,0.9,0.9V34.9
		z"/>
	<path class="st2" d="M35.1,29.5c-1.5,0-2.7,1.2-2.7,2.7c0,1.5,1.2,2.7,2.7,2.7c1.5,0,2.7-1.2,2.7-2.7
		C37.9,30.7,36.6,29.5,35.1,29.5 M35.1,33.4c-0.6,0-1.1-0.5-1.1-1.1c0-0.6,0.5-1.1,1.1-1.1c0.6,0,1.1,0.5,1.1,1.1
		C36.3,32.9,35.8,33.4,35.1,33.4"/>
	<path class="st2" d="M42.9,29.5c-1.5,0-2.7,1.2-2.7,2.7c0,1.5,1.2,2.7,2.7,2.7c1.5,0,2.7-1.2,2.7-2.7
		C45.6,30.7,44.4,29.5,42.9,29.5 M42.9,33.4c-0.6,0-1.1-0.5-1.1-1.1c0-0.6,0.5-1.1,1.1-1.1c0.6,0,1.1,0.5,1.1,1.1
		C44.1,32.9,43.5,33.4,42.9,33.4"/>
	<path class="st2" d="M59.3,29.5c-1.5,0-2.7,1.2-2.7,2.7c0,1.5,1.2,2.7,2.7,2.7c1.5,0,2.7-1.2,2.7-2.7C62,30.7,60.8,29.5,59.3,29.5
		 M59.3,33.4c-0.6,0-1.1-0.5-1.1-1.1c0-0.6,0.5-1.1,1.1-1.1c0.6,0,1.1,0.5,1.1,1.1C60.4,32.9,59.9,33.4,59.3,33.4"/>
	<path class="st2" d="M67,29.5c-1.5,0-2.7,1.2-2.7,2.7c0,1.5,1.2,2.7,2.7,2.7c1.5,0,2.7-1.2,2.7-2.7C69.8,30.7,68.6,29.5,67,29.5
		 M67,33.4c-0.6,0-1.1-0.5-1.1-1.1c0-0.6,0.5-1.1,1.1-1.1c0.6,0,1.1,0.5,1.1,1.1C68.2,32.9,67.7,33.4,67,33.4"/>
	<path class="st2" d="M70.1,41.9H46.9c-0.4,0-0.8,0.4-0.8,0.8s0.4,0.8,0.8,0.8h23.2c0.2,0,0.3,0.1,0.3,0.3v2.1
		c0,0.2-0.1,0.3-0.3,0.3H32.1c-0.2,0-0.3-0.1-0.3-0.3v-2.1c0-0.2,0.1-0.3,0.3-0.3h19.1c0.4,0,0.8-0.4,0.8-0.8s-0.4-0.8-0.8-0.8H32.1
		c-1,0-1.9,0.8-1.9,1.9v2.1c0,1,0.8,1.9,1.9,1.9h1.1v17.7c0,1.5,1.2,2.8,2.8,2.8h30.4c1.5,0,2.8-1.2,2.8-2.8V47.8h1.1
		c1,0,1.9-0.8,1.9-1.9v-2.1C72,42.8,71.2,41.9,70.1,41.9 M67.5,65.5c0,0.6-0.5,1.2-1.2,1.2H35.9c-0.6,0-1.2-0.5-1.2-1.2V47.8h32.7
		V65.5z"/>
	<path class="st2" d="M40.1,55c0.2,0,0.4-0.1,0.6-0.3l2.5-2.7c0.3-0.3,0.3-0.8,0-1.1c-0.3-0.3-0.8-0.3-1.1,0l-2.4,2.7
		c-0.3,0.3-0.3,0.8,0,1.1C39.7,55,39.9,55,40.1,55"/>
	<path class="st2" d="M40.2,58.1c0.2,0.1,0.3,0.2,0.5,0.2c0.2,0,0.4-0.1,0.6-0.3l5-5.5c0.3-0.3,0.3-0.8,0-1.1
		c-0.3-0.3-0.8-0.3-1.1,0l-5,5.5C39.9,57.3,39.9,57.8,40.2,58.1"/>
</g>
</svg>
