<?xml version="1.0" encoding="utf-8"?>
<!-- Generator: Adobe Illustrator 23.0.4, SVG Export Plug-In . SVG Version: 6.00 Build 0)  -->
<svg version="1.1" id="Capa_1" xmlns="http://www.w3.org/2000/svg" xmlns:xlink="http://www.w3.org/1999/xlink" x="0px" y="0px"
	 width="56px" height="48px" viewBox="0 0 56 48" style="enable-background:new 0 0 56 48;" xml:space="preserve">
<style type="text/css">
	.st0{fill:none;stroke:#BF0D15;stroke-width:2;stroke-miterlimit:10;}
	.st1{fill:#BF0D15;}
</style>
<path class="st0" d="M37.4,4.8H6.2c-2,0-3.6,1.6-3.6,3.6v31.3c0,2,1.6,3.6,3.6,3.6h31.3c2,0,3.6-1.6,3.6-3.6V8.4
	C41.1,6.4,39.4,4.8,37.4,4.8z"/>
<path class="st1" d="M25,41.1L25,41.1c-1.1,0-2.1-0.4-2.8-1.2L8.9,26.7c-1.6-1.6-1.6-4.1,0-5.7c1.6-1.6,4.1-1.6,5.7,0L25,31.4
	L48.3,8.1c1.6-1.6,4.1-1.6,5.7,0c1.6,1.6,1.6,4.1,0,5.7L27.8,39.9C27.1,40.7,26.1,41.1,25,41.1"/>
</svg>
