<?xml version="1.0" encoding="utf-8"?>
<!-- Generator: Adobe Illustrator 23.0.4, SVG Export Plug-In . SVG Version: 6.00 Build 0)  -->
<svg version="1.1" id="Capa_1" xmlns="http://www.w3.org/2000/svg" xmlns:xlink="http://www.w3.org/1999/xlink" x="0px" y="0px"
	 width="125px" height="125px" viewBox="0 0 125 125" style="enable-background:new 0 0 125 125;" xml:space="preserve">
<style type="text/css">
	.st0{fill:#BF0D15;}
	.st1{fill-rule:evenodd;clip-rule:evenodd;fill:#FFFFFF;}
</style>
<path class="st0" d="M399.3,1360.3c0,27.2-22,49.2-49.2,49.2c-27.2,0-49.2-22-49.2-49.2c0-27.2,22-49.2,49.2-49.2
	C377.2,1311.1,399.3,1333.2,399.3,1360.3"/>
<path class="st1" d="M327.1,1339.4v9.1c0,0.7,0.3,1.3,0.7,1.8c0.5,0.5,1.1,0.7,1.8,0.7h37.9c0.7,0,1.3-0.3,1.8-0.7
	c0.5-0.5,0.7-1.1,0.7-1.8v-2.8v-3.5v-2.8c0-0.7-0.3-1.3-0.7-1.8c-0.5-0.5-1.1-0.7-1.8-0.7h-37.9c-0.7,0-1.3,0.3-1.8,0.7l0,0
	C327.4,1338.1,327.1,1338.7,327.1,1339.4 M350.8,1369c0.6,0.2,1.2,0.5,1.7,1c0.7,0.7,1.1,1.6,1.1,2.7v16.6c0,1-0.4,2-1.1,2.7l0,0
	c-0.7,0.7-1.6,1.1-2.7,1.1h-2.5c-1,0-2-0.4-2.7-1.1c-0.7-0.7-1.1-1.6-1.1-2.7v-16.6c0-1,0.4-2,1.1-2.7v0l0,0l0,0
	c0.5-0.5,1-0.8,1.7-1v-8.4v-1.6c0-0.3,0.3-0.6,0.6-0.6h1.6h24.7v-12.1h-2v2.2c0,1-0.4,2-1.1,2.7c-0.7,0.7-1.6,1.1-2.7,1.1h-37.9
	c-1,0-2-0.4-2.7-1.1c-0.7-0.7-1.1-1.6-1.1-2.7v-9.1c0-1,0.4-2,1.1-2.7l0,0c0.7-0.7,1.6-1.1,2.7-1.1h37.9c1,0,2,0.4,2.7,1.1h0l0,0
	c0.7,0.7,1.1,1.6,1.1,2.7v2.2h5.9c0.3,0,0.6,0.3,0.6,0.6v1.6v1.8v15v1.6c0,0.3-0.3,0.6-0.6,0.6h-1.6h-24.7V1369z M347.3,1370.2
	c-0.7,0-1.3,0.3-1.8,0.7l0,0c-0.5,0.5-0.7,1.1-0.7,1.8v16.6c0,0.7,0.3,1.3,0.7,1.8c0.5,0.5,1.1,0.7,1.8,0.7h2.5
	c0.7,0,1.3-0.3,1.8-0.7l0,0c0.5-0.5,0.7-1.1,0.7-1.8v-16.6c0-0.7-0.3-1.3-0.7-1.8c-0.5-0.5-1.1-0.7-1.8-0.7H347.3z M347.6,1368.9
	v-8.3v-1h1h25.3c0.3,0,0.6-0.3,0.6-0.6v-13.4c0-0.3-0.3-0.6-0.6-0.6h-2.6v-2.2h5.2v1v1.8v15v1h-1h-25.3c-0.3,0-0.6,0.3-0.6,0.6v6.6
	H347.6z"/>
<path class="st0" d="M399.3,1360.3c0,27.2-22,49.2-49.2,49.2c-27.2,0-49.2-22-49.2-49.2c0-27.2,22-49.2,49.2-49.2
	C377.2,1311.1,399.3,1333.2,399.3,1360.3"/>
<path class="st1" d="M327.1,1339.4v9.1c0,0.7,0.3,1.3,0.7,1.8c0.5,0.5,1.1,0.7,1.8,0.7h37.9c0.7,0,1.3-0.3,1.8-0.7
	c0.5-0.5,0.7-1.1,0.7-1.8v-2.8v-3.5v-2.8c0-0.7-0.3-1.3-0.7-1.8c-0.5-0.5-1.1-0.7-1.8-0.7h-37.9c-0.7,0-1.3,0.3-1.8,0.7l0,0
	C327.4,1338.1,327.1,1338.7,327.1,1339.4 M350.8,1369c0.6,0.2,1.2,0.5,1.7,1c0.7,0.7,1.1,1.6,1.1,2.7v16.6c0,1-0.4,2-1.1,2.7l0,0
	c-0.7,0.7-1.6,1.1-2.7,1.1h-2.5c-1,0-2-0.4-2.7-1.1c-0.7-0.7-1.1-1.6-1.1-2.7v-16.6c0-1,0.4-2,1.1-2.7v0l0,0l0,0
	c0.5-0.5,1-0.8,1.7-1v-8.4v-1.6c0-0.3,0.3-0.6,0.6-0.6h1.6h24.7v-12.1h-2v2.2c0,1-0.4,2-1.1,2.7c-0.7,0.7-1.6,1.1-2.7,1.1h-37.9
	c-1,0-2-0.4-2.7-1.1c-0.7-0.7-1.1-1.6-1.1-2.7v-9.1c0-1,0.4-2,1.1-2.7l0,0c0.7-0.7,1.6-1.1,2.7-1.1h37.9c1,0,2,0.4,2.7,1.1h0l0,0
	c0.7,0.7,1.1,1.6,1.1,2.7v2.2h5.9c0.3,0,0.6,0.3,0.6,0.6v1.6v1.8v15v1.6c0,0.3-0.3,0.6-0.6,0.6h-1.6h-24.7V1369z M347.3,1370.2
	c-0.7,0-1.3,0.3-1.8,0.7l0,0c-0.5,0.5-0.7,1.1-0.7,1.8v16.6c0,0.7,0.3,1.3,0.7,1.8c0.5,0.5,1.1,0.7,1.8,0.7h2.5
	c0.7,0,1.3-0.3,1.8-0.7l0,0c0.5-0.5,0.7-1.1,0.7-1.8v-16.6c0-0.7-0.3-1.3-0.7-1.8c-0.5-0.5-1.1-0.7-1.8-0.7H347.3z M347.6,1368.9
	v-8.3v-1h1h25.3c0.3,0,0.6-0.3,0.6-0.6v-13.4c0-0.3-0.3-0.6-0.6-0.6h-2.6v-2.2h5.2v1v1.8v15v1h-1h-25.3c-0.3,0-0.6,0.3-0.6,0.6v6.6
	H347.6z"/>
<g>
	<path class="st0" d="M120.4,62.5c0,32-25.9,57.9-57.9,57.9c-32,0-57.9-25.9-57.9-57.9c0-32,25.9-57.9,57.9-57.9
		C94.5,4.6,120.4,30.5,120.4,62.5"/>
	<path class="st1" d="M51.1,59.9L51.1,59.9L51.1,59.9z M47.8,81.9l4-6.8c-0.3-0.1-0.6-0.2-0.9-0.3l-0.9-0.3c-0.3-0.1-0.5-0.1-0.8,0
		l0,0c-0.2,0.1-0.4,0.2-0.6,0.4l-0.5,0.7l-2.8,4.1c0,0.2,0,0.3,0,0.5c0,0.2,0.1,0.3,0.2,0.5c0.1,0.1,0.2,0.2,0.4,0.3L47.8,81.9z
		 M88.2,43.1H100c0.4,0,0.8,0.4,0.8,0.8v32.3c0,0.4-0.4,0.8-0.8,0.8H88.2c-0.4,0-0.8-0.4-0.8-0.8v-1.4l-3.7,2.4l0,0
		c0.1,0.3,0.2,0.6,0.3,0.8c0.1,0.5,0,1-0.2,1.6l-0.2,0.6c-0.7,1.6-1.5,3.1-2.5,4.4c-1,1.3-2.2,2.5-3.6,3.6l-5.7,4.4
		c-0.5,0.4-1,0.6-1.5,0.6c-0.6,0-1.1-0.1-1.6-0.4l-5.2-3.1c-0.2,0.3-0.4,0.5-0.6,0.7l0,0c-0.3,0.2-0.6,0.4-1,0.5
		C61.4,91,61.1,91,60.7,91c-0.4,0-0.7-0.2-1-0.4l-14.4-8.3c-0.3-0.2-0.6-0.5-0.9-0.8c-0.2-0.3-0.4-0.7-0.5-1.1
		c-0.1-0.4-0.1-0.8,0-1.2c0-0.1,0.1-0.3,0.1-0.4l-4.2-3.8v1.1c0,0.4-0.4,0.8-0.8,0.8H27.2c-0.4,0-0.8-0.4-0.8-0.8V43.9
		c0-0.4,0.4-0.8,0.8-0.8H39c0.4,0,0.8,0.4,0.8,0.8v0.6l5.9,1.8c0.7,0.2,1.3,0.7,1.6,1.4c0.3,0.6,0.4,1.4,0.2,2.1l0,0.1l7,0.6l0.1,0
		L68,52.3c1.1-0.3,2.2-0.6,3.5-0.9l8.5-1.9c-0.1-0.6,0-1.3,0.3-1.8c0.3-0.6,0.9-1.2,1.6-1.4l5.5-1.7v-0.7
		C87.4,43.5,87.8,43.1,88.2,43.1 M82.7,76c0,0,0.1-0.1,0.1-0.1l4.3-2.8c0.1,0,0.1-0.1,0.2-0.1l-6.9-21.9L71.8,53
		c-1.2,0.3-2.4,0.6-3.5,0.9l0,0l0,0l0,0c-0.3,0.1-0.5,0.2-0.8,0.2c-1.4,0.4-2.8,0.9-4.2,1.5l-10.3,4.3l0.4,0.9
		c0.4,0.9,1.1,1.6,1.9,1.9c0.8,0.4,1.8,0.5,2.7,0.2l9.9-2.7c0.3-0.1,0.6,0,0.8,0.3L82.7,76z M53.4,75.7c0.2,0.1,0.4,0.2,0.6,0.2
		c0.5,0.2,1,0.5,1.4,0.7c0.5,0.3,0.9,0.5,1.4,0.8l-4.3,7l-3.2-1.9L53.4,75.7z M53.8,85.4l3.4,2l3.9-6.4l-3.1-2.4L53.8,85.4z
		 M58.6,88.2l1.8,1.1h0c0.1,0.1,0.3,0.1,0.4,0.2c0.1,0,0.3,0,0.5,0c0.2,0,0.3-0.1,0.4-0.2l0,0c0.1-0.1,0.2-0.2,0.3-0.3l2.3-4
		c0.1-0.3,0.2-0.6,0.1-0.8c-0.1-0.3-0.2-0.5-0.4-0.7l-1.7-1.3L58.6,88.2z M40.2,73.3l4.7,4.2l2.5-3.5c0.4-0.5,0.9-0.9,1.5-1.1
		c0.6-0.2,1.2-0.2,1.8,0.1l2.8,1c1,0.4,1.9,0.8,2.8,1.3c0.7,0.4,1.4,0.8,2.1,1.3l0,0c0.1,0,0.1,0.1,0.1,0.1c0.1,0.1,0.2,0.2,0.3,0.3
		l6.3,5c0.3,0.2,0.5,0.5,0.7,0.8l8.5,5.9l2.3-1.8c0.3-0.2,0.6-0.4,0.8-0.7L65.2,77c-0.4-0.3-0.4-0.8-0.2-1.1
		c0.3-0.4,0.8-0.4,1.1-0.2l12.3,9.4c0.5-0.5,0.9-1,1.3-1.5c0.3-0.4,0.6-0.9,0.9-1.4l-10.8-9.6c-0.3-0.3-0.4-0.8-0.1-1.1
		c0.3-0.3,0.8-0.4,1.1-0.1l10.5,9.4c0.2-0.4,0.4-0.8,0.6-1.2l0.2-0.6c0.1-0.2,0.1-0.5,0.1-0.7c0-0.2-0.1-0.4-0.3-0.6L67.8,62
		l-9.5,2.5c-1.3,0.4-2.7,0.2-3.8-0.3c-1.2-0.5-2.1-1.5-2.7-2.7l-0.8-1.6l0-0.1c-0.2-0.4,0-0.9,0.4-1l11.1-4.6
		c0.6-0.3,1.2-0.5,1.8-0.7l-10.1-1.2h0L47,51.7h0L40.2,73.3z M66,85c-0.1,0.2-0.1,0.4-0.3,0.6l-1.5,2.7l5.3,3.1
		c0.2,0.1,0.5,0.2,0.7,0.2c0.2,0,0.5-0.1,0.7-0.3l2.1-1.6L66,85z M39.8,69.1L46,49.5c0.1-0.3,0.1-0.7-0.1-0.9
		c-0.1-0.3-0.4-0.5-0.7-0.6l-5.4-1.7V69.1z M38.2,44.7H28v30.7h10.2v-1V45.2V44.7z M87.4,67.9V46.3l-5,1.6c-0.3,0.1-0.6,0.3-0.7,0.6
		c-0.1,0.3-0.2,0.6-0.1,0.9L87.4,67.9z M89,73.1L89,73.1l0,2.3h10.2V44.7H89v0.4l0,0V73.1z"/>
</g>
</svg>
