<?xml version="1.0" encoding="utf-8"?>
<!-- Generator: Adobe Illustrator 23.0.4, SVG Export Plug-In . SVG Version: 6.00 Build 0)  -->
<svg version="1.1" id="Capa_1" xmlns="http://www.w3.org/2000/svg" xmlns:xlink="http://www.w3.org/1999/xlink" x="0px" y="0px"
	 width="40px" height="29px" viewBox="0 0 40 29" style="enable-background:new 0 0 40 29;" xml:space="preserve">
<style type="text/css">
	.st0{fill-rule:evenodd;clip-rule:evenodd;fill:#BF0D15;}
</style>
<path class="st0" d="M37.6,24.3l-10.7-8.1l-6.6,5c-0.1,0.1-0.4,0.1-0.5,0l-6.6-5L2.4,24.3c0.1,0.4,0.2,0.7,0.5,0.9h0
	c0.3,0.3,0.7,0.5,1.2,0.5h32c0.5,0,0.9-0.2,1.2-0.5C37.4,25,37.6,24.7,37.6,24.3 M26.6,15.3l-6.6,5l-6.6-5l0,0L2.4,7V4.9
	c0-0.5,0.2-0.9,0.5-1.2C3.1,3.5,3.6,3.3,4,3.3h32c0.5,0,0.9,0.2,1.2,0.5l0,0c0.3,0.3,0.5,0.7,0.5,1.2V7L26.6,15.3L26.6,15.3z
	 M27.6,15.7L37.6,8v15.2L27.6,15.7z M2.4,8l10.1,7.6L2.4,23.3V8z M4,2.5h32c0.7,0,1.3,0.3,1.8,0.7l0,0c0.5,0.5,0.7,1.1,0.7,1.8v19.1
	c0,0.7-0.3,1.3-0.7,1.8c-0.5,0.5-1.1,0.7-1.8,0.7H4c-0.7,0-1.3-0.3-1.8-0.7l0,0h0c-0.5-0.5-0.7-1.1-0.7-1.8V4.9
	c0-0.7,0.3-1.3,0.7-1.8C2.7,2.7,3.3,2.5,4,2.5"/>
</svg>
