<?xml version="1.0" encoding="utf-8"?>
<!-- Generator: Adobe Illustrator 23.0.4, SVG Export Plug-In . SVG Version: 6.00 Build 0)  -->
<svg version="1.1" id="Capa_1" xmlns="http://www.w3.org/2000/svg" xmlns:xlink="http://www.w3.org/1999/xlink" x="0px" y="0px"
	 width="40px" height="40px" viewBox="0 0 40 40" style="enable-background:new 0 0 40 40;" xml:space="preserve">
<style type="text/css">
	.st0{fill-rule:evenodd;clip-rule:evenodd;fill:#CCCCCC;}
</style>
<path class="st0" d="M20,1.2C9.6,1.2,1.2,9.6,1.2,20c0,10.4,8.5,18.8,18.8,18.8c10.4,0,18.8-8.5,18.8-18.8C38.8,9.6,30.4,1.2,20,1.2
	 M25.2,12.3c0,0.2-0.1,0.3-0.3,0.3h-2.3c-0.6,0-1,0.5-1,1V16h3.2c0.2,0,0.3,0.1,0.3,0.3l-0.3,3.3c0,0.1-0.1,0.3-0.3,0.3h-2.9V31
	c0,0.2-0.1,0.3-0.3,0.3h-4.1c-0.2,0-0.3-0.1-0.3-0.3V20.1v-0.2h-2c-0.2,0-0.3-0.1-0.3-0.3v-3.3c0-0.2,0.1-0.3,0.3-0.3h2v-3.2
	c0-2.2,1.8-4.1,4.1-4.1h3.8c0.2,0,0.3,0.1,0.3,0.3V12.3z"/>
</svg>
