<?xml version="1.0" encoding="utf-8"?>
<!-- Generator: Adobe Illustrator 23.0.4, SVG Export Plug-In . SVG Version: 6.00 Build 0)  -->
<svg version="1.1" id="Capa_1" xmlns="http://www.w3.org/2000/svg" xmlns:xlink="http://www.w3.org/1999/xlink" x="0px" y="0px"
	 width="102px" height="102px" viewBox="0 0 102 102" style="enable-background:new 0 0 102 102;" xml:space="preserve">
<style type="text/css">
	.st0{fill:#BF0D15;}
	.st1{fill-rule:evenodd;clip-rule:evenodd;fill:#FFFFFF;}
	.st2{fill:#FFFFFF;}
</style>
<path class="st0" d="M386.1,1343c0,27.2-22,49.2-49.2,49.2c-27.2,0-49.2-22-49.2-49.2c0-27.2,22-49.2,49.2-49.2
	C364.1,1293.8,386.1,1315.8,386.1,1343"/>
<path class="st1" d="M314,1322v9.1c0,0.7,0.3,1.3,0.7,1.8c0.5,0.5,1.1,0.7,1.8,0.7h37.9c0.7,0,1.3-0.3,1.8-0.7
	c0.5-0.5,0.7-1.1,0.7-1.8v-2.8v-3.5v-2.8c0-0.7-0.3-1.3-0.7-1.8c-0.5-0.5-1.1-0.7-1.8-0.7h-37.9c-0.7,0-1.3,0.3-1.8,0.7l0,0
	C314.2,1320.7,314,1321.3,314,1322 M337.7,1351.7c0.6,0.2,1.2,0.5,1.7,1c0.7,0.7,1.1,1.6,1.1,2.7v16.6c0,1-0.4,2-1.1,2.7l0,0
	c-0.7,0.7-1.6,1.1-2.7,1.1h-2.5c-1,0-2-0.4-2.7-1.1c-0.7-0.7-1.1-1.6-1.1-2.7v-16.6c0-1,0.4-2,1.1-2.7v0l0,0l0,0
	c0.5-0.5,1-0.8,1.7-1v-8.4v-1.6c0-0.3,0.3-0.6,0.6-0.6h1.6h24.7v-12.1h-2v2.2c0,1-0.4,2-1.1,2.7c-0.7,0.7-1.6,1.1-2.7,1.1h-37.9
	c-1,0-2-0.4-2.7-1.1c-0.7-0.7-1.1-1.6-1.1-2.7v-9.1c0-1,0.4-2,1.1-2.7l0,0c0.7-0.7,1.6-1.1,2.7-1.1h37.9c1,0,2,0.4,2.7,1.1h0l0,0
	c0.7,0.7,1.1,1.6,1.1,2.7v2.2h5.9c0.3,0,0.6,0.3,0.6,0.6v1.6v1.8v15v1.6c0,0.3-0.3,0.6-0.6,0.6h-1.6h-24.7V1351.7z M334.2,1352.8
	c-0.7,0-1.3,0.3-1.8,0.7l0,0c-0.5,0.5-0.7,1.1-0.7,1.8v16.6c0,0.7,0.3,1.3,0.7,1.8c0.5,0.5,1.1,0.7,1.8,0.7h2.5
	c0.7,0,1.3-0.3,1.8-0.7l0,0c0.5-0.5,0.7-1.1,0.7-1.8v-16.6c0-0.7-0.3-1.3-0.7-1.8c-0.5-0.5-1.1-0.7-1.8-0.7H334.2z M334.4,1351.5
	v-8.3v-1h1h25.3c0.3,0,0.6-0.3,0.6-0.6v-13.4c0-0.3-0.3-0.6-0.6-0.6h-2.6v-2.2h5.2v1v1.8v15v1h-1h-25.3c-0.3,0-0.6,0.3-0.6,0.6v6.6
	H334.4z"/>
<path class="st0" d="M386.1,1343c0,27.2-22,49.2-49.2,49.2c-27.2,0-49.2-22-49.2-49.2c0-27.2,22-49.2,49.2-49.2
	C364.1,1293.8,386.1,1315.8,386.1,1343"/>
<path class="st1" d="M314,1322v9.1c0,0.7,0.3,1.3,0.7,1.8c0.5,0.5,1.1,0.7,1.8,0.7h37.9c0.7,0,1.3-0.3,1.8-0.7
	c0.5-0.5,0.7-1.1,0.7-1.8v-2.8v-3.5v-2.8c0-0.7-0.3-1.3-0.7-1.8c-0.5-0.5-1.1-0.7-1.8-0.7h-37.9c-0.7,0-1.3,0.3-1.8,0.7l0,0
	C314.2,1320.7,314,1321.3,314,1322 M337.7,1351.7c0.6,0.2,1.2,0.5,1.7,1c0.7,0.7,1.1,1.6,1.1,2.7v16.6c0,1-0.4,2-1.1,2.7l0,0
	c-0.7,0.7-1.6,1.1-2.7,1.1h-2.5c-1,0-2-0.4-2.7-1.1c-0.7-0.7-1.1-1.6-1.1-2.7v-16.6c0-1,0.4-2,1.1-2.7v0l0,0l0,0
	c0.5-0.5,1-0.8,1.7-1v-8.4v-1.6c0-0.3,0.3-0.6,0.6-0.6h1.6h24.7v-12.1h-2v2.2c0,1-0.4,2-1.1,2.7c-0.7,0.7-1.6,1.1-2.7,1.1h-37.9
	c-1,0-2-0.4-2.7-1.1c-0.7-0.7-1.1-1.6-1.1-2.7v-9.1c0-1,0.4-2,1.1-2.7l0,0c0.7-0.7,1.6-1.1,2.7-1.1h37.9c1,0,2,0.4,2.7,1.1h0l0,0
	c0.7,0.7,1.1,1.6,1.1,2.7v2.2h5.9c0.3,0,0.6,0.3,0.6,0.6v1.6v1.8v15v1.6c0,0.3-0.3,0.6-0.6,0.6h-1.6h-24.7V1351.7z M334.2,1352.8
	c-0.7,0-1.3,0.3-1.8,0.7l0,0c-0.5,0.5-0.7,1.1-0.7,1.8v16.6c0,0.7,0.3,1.3,0.7,1.8c0.5,0.5,1.1,0.7,1.8,0.7h2.5
	c0.7,0,1.3-0.3,1.8-0.7l0,0c0.5-0.5,0.7-1.1,0.7-1.8v-16.6c0-0.7-0.3-1.3-0.7-1.8c-0.5-0.5-1.1-0.7-1.8-0.7H334.2z M334.4,1351.5
	v-8.3v-1h1h25.3c0.3,0,0.6-0.3,0.6-0.6v-13.4c0-0.3-0.3-0.6-0.6-0.6h-2.6v-2.2h5.2v1v1.8v15v1h-1h-25.3c-0.3,0-0.6,0.3-0.6,0.6v6.6
	H334.4z"/>
<g>
	<path class="st0" d="M100.2,51c0,27.2-22,49.2-49.2,49.2c-27.2,0-49.2-22-49.2-49.2c0-27.2,22-49.2,49.2-49.2
		C78.2,1.8,100.2,23.8,100.2,51"/>
	<path class="st2" d="M34.6,44.2L34.6,44.2c-1.5,0-2.6,1.2-2.6,2.6c0,0.2,0,0.3,0,0.5l0,0.2L29.5,49l0.7,1.2l2.6-1.5l0.1,0.1
		c0.5,0.4,1.1,0.6,1.7,0.6c0,0,0,0,0,0c1.5,0,2.6-1.2,2.6-2.6c0-0.7-0.3-1.4-0.8-1.9C36,44.4,35.3,44.2,34.6,44.2 M34.6,48
		c-0.7,0-1.2-0.6-1.2-1.2c0-0.7,0.6-1.2,1.2-1.2c0.7,0,1.2,0.6,1.2,1.2C35.9,47.5,35.3,48,34.6,48"/>
	<path class="st2" d="M34.6,38.3c-4.7,0-8.4,3.8-8.4,8.4c0,4.7,3.8,8.4,8.4,8.4c4.6,0,8.4-3.8,8.4-8.4
		C43.1,42.1,39.3,38.3,34.6,38.3 M41.6,47.8c-0.3,1.9-1.2,3.5-2.8,4.6c-1.3,0.9-2.8,1.4-4.2,1.4c-2.2,0-4.3-1-5.7-2.8
		c-0.9-1.2-1.4-2.7-1.4-4.2c0-1.5,0.5-3,1.4-4.2l0.2-0.3l1.3,1.4l1-1l-1.3-1.3l0.3-0.2c0.9-0.7,2.1-1.2,3.2-1.3l0.3,0v1.9h1.4v-1.9
		l0.3,0c1.2,0.2,2.3,0.6,3.2,1.3l0.3,0.2l-1.4,1.3l1,1l1.3-1.4l0.2,0.3C41.4,44.1,41.9,45.9,41.6,47.8"/>
	<path class="st2" d="M63.7,39c0.8-0.8,1.9-1.2,2.9-1.2h4.8c4.6,0,8.4-3.8,8.4-8.4v-9.4h-1.4v9.4c0,3.9-3.2,7.1-7.1,7.1h-4.8h0
		c-1.5,0-2.9,0.6-3.9,1.6c-1,1-1.6,2.4-1.6,3.9v0.1c0,3,2.4,5.4,5.4,5.4h0.3c1.7,0,3.1,1.4,3.1,3.1l0,0.2c0,0.8-0.3,1.6-0.9,2.2
		c-0.6,0.6-1.4,0.9-2.2,0.9h0l-6.9,0h0c-1,0-1.9,0.4-2.5,1.1c-0.7,0.7-1.1,1.6-1.1,2.5v4.2L50.6,56c-1.1-1.1-1.1-2.8,0-3.9
		c0.5-0.5,1.2-0.8,1.9-0.8H55c1.7,0,3.1-1.4,3.1-3.1c0-1.7-1.4-3.1-3.1-3.1h-1c-3.4,0-6.1-2.7-6.1-6.1c0-3.4,2.7-6.1,6.1-6.1h0.5
		c2.8,0,5.1-2.3,5.1-5c0-2.8-2.3-5.1-5.1-5.1h-9.2c-1.2,0-2.2-1-2.2-2.2v-0.7h-1.4v0.7c0,2,1.6,3.6,3.6,3.6h9.2c2,0,3.7,1.6,3.7,3.7
		c0,2-1.6,3.7-3.7,3.7H54c-4.1,0-7.5,3.4-7.5,7.5c0,4.1,3.4,7.5,7.5,7.5h1c1,0,1.7,0.8,1.7,1.7c0,1-0.8,1.7-1.7,1.7h-2.4
		c-2.3,0-4.1,1.8-4.1,4.1c0,1.1,0.4,2.1,1.2,2.9l5.6,5.6h-17v-5l0.2-0.1c2.9-1,5.2-3.1,6.5-5.8c1.3-2.7,1.5-5.8,0.5-8.7
		c-2.1-5.9-8.6-9-14.5-6.9c-2.9,1-5.2,3.1-6.5,5.8c-1.3,2.7-1.5,5.8-0.5,8.7c1.1,3.2,3.7,5.8,6.9,6.9l0.2,0.1v5h-3.5v-1.2
		c0-0.4-0.3-0.7-0.7-0.7H23c-0.4,0-0.7,0.3-0.7,0.7v15.5c0,0.4,0.3,0.7,0.7,0.7h3.9c0.4,0,0.7-0.3,0.7-0.7v-1.2h47.1v1.2
		c0,0.2,0.1,0.4,0.2,0.5c0.1,0.1,0.3,0.2,0.5,0.2h3.9c0.4,0,0.7-0.3,0.7-0.7V61.3c0-0.4-0.3-0.7-0.7-0.7h-3.9h0
		c-0.2,0-0.4,0.1-0.5,0.2s-0.2,0.3-0.2,0.5v1.2h-17v-5.1c0-0.6,0.2-1.2,0.7-1.6c0.4-0.4,1-0.6,1.6-0.6h0l6.9,0
		c1.2,0,2.3-0.5,3.2-1.3c0.8-0.8,1.3-2,1.3-3.2l0-0.2c0-2.4-2-4.4-4.4-4.4h-0.3c-2.2,0-4-1.8-4-4v-0.1C62.4,40.8,62.9,39.8,63.7,39
		 M26.2,76.1h-2.5V62h2.5V76.1z M76,62h2.5v14.1H76V62z M24.6,46.8L24.6,46.8c0-5.5,4.5-10,10-10c5.5,0,10,4.5,10,10
		c0,5.5-4.5,10-10,10C29.1,56.7,24.6,52.3,24.6,46.8 M74.6,63.9v10.2H27.5V63.9h4.2c0.4,0,0.7-0.3,0.7-0.7v-5.3l0.3,0.1
		c1.3,0.2,2.5,0.2,3.8,0l0.3-0.1v4.6h-1.9v1.4h20.3l-0.8,0.8c-0.3,0.3-0.3,0.7,0,1l2.4,2.4l-1.3,1.3l1,1l1.7-1.7
		c0.3-0.3,0.3-0.7,0-1l-2.4-2.4l1.2-1.2H74.6z"/>
	<path class="st2" d="M58.2,44.6h1.4v-1.2c0-1.7-1.4-3.1-3.1-3.1H54c-0.7,0-1.2-0.6-1.2-1.2s0.6-1.2,1.2-1.2h2.6v-1.4H54
		c-1.4,0-2.6,1.2-2.6,2.6c0,1.4,1.2,2.6,2.6,2.6h2.4c1,0,1.7,0.8,1.7,1.7V44.6z"/>
	<path class="st2" d="M69.4,31c2,0,3.7-1.7,3.7-3.7v-1.5h-1.4v1.5c0,1.3-1.1,2.3-2.3,2.3h-3.6c-2,0-3.7,1.7-3.7,3.7v1.5h1.4v-1.5
		c0-1.3,1.1-2.3,2.3-2.3H69.4z"/>
	<path class="st2" d="M64.9,49.7c0,0.7-0.6,1.2-1.2,1.2H62v1.4h1.7c1.4,0,2.6-1.2,2.6-2.6V49h-1.4V49.7z"/>
</g>
</svg>
