<?xml version="1.0" encoding="utf-8"?>
<!-- Generator: Adobe Illustrator 23.0.4, SVG Export Plug-In . SVG Version: 6.00 Build 0)  -->
<svg version="1.1" id="Capa_1" xmlns="http://www.w3.org/2000/svg" xmlns:xlink="http://www.w3.org/1999/xlink" x="0px" y="0px"
	 width="40px" height="40px" viewBox="0 0 40 40" style="enable-background:new 0 0 40 40;" xml:space="preserve">
<style type="text/css">
	.st0{fill:#CCCCCC;}
</style>
<g>
	<path class="st0" d="M24.8,10.4h-9.4c-2.7,0-4.9,2.2-4.9,4.9v9.4c0,2.7,2.2,4.9,4.9,4.9h9.4c2.7,0,4.9-2.2,4.9-4.9v-9.4
		C29.7,12.6,27.5,10.4,24.8,10.4 M20.2,26c-3.2,0-5.8-2.6-5.8-5.8c0-3.2,2.6-5.8,5.8-5.8s5.8,2.6,5.8,5.8C26,23.4,23.4,26,20.2,26
		 M26.3,15.3c-0.8,0-1.4-0.6-1.4-1.4c0-0.8,0.6-1.4,1.4-1.4c0.8,0,1.4,0.6,1.4,1.4C27.7,14.7,27.1,15.3,26.3,15.3"/>
	<path class="st0" d="M20.2,16.4c-2.1,0-3.7,1.7-3.7,3.7c0,2.1,1.7,3.7,3.7,3.7c2.1,0,3.7-1.7,3.7-3.7
		C23.9,18.1,22.2,16.4,20.2,16.4"/>
	<path class="st0" d="M38.5,20C38.5,9.8,30.2,1.5,20,1.5C9.8,1.5,1.5,9.8,1.5,20S9.8,38.5,20,38.5C30.2,38.5,38.5,30.2,38.5,20
		 M24.8,31.8h-9.4c-3.9,0-7.1-3.2-7.1-7.1v-9.4c0-3.9,3.2-7.1,7.1-7.1h9.4c3.9,0,7.1,3.2,7.1,7.1v9.4C31.9,28.6,28.7,31.8,24.8,31.8
		"/>
</g>
</svg>
