<?xml version="1.0" encoding="utf-8"?>
<!-- Generator: Adobe Illustrator 23.0.4, SVG Export Plug-In . SVG Version: 6.00 Build 0)  -->
<svg version="1.1" id="Capa_1" xmlns="http://www.w3.org/2000/svg" xmlns:xlink="http://www.w3.org/1999/xlink" x="0px" y="0px"
	 width="102px" height="102px" viewBox="0 0 102 102" style="enable-background:new 0 0 102 102;" xml:space="preserve">
<style type="text/css">
	.st0{fill:#BF0D15;}
	.st1{fill-rule:evenodd;clip-rule:evenodd;fill:#FFFFFF;}
</style>
<g>
	<path class="st0" d="M100.2,51c0,27.2-22,49.2-49.2,49.2c-27.2,0-49.2-22-49.2-49.2c0-27.2,22-49.2,49.2-49.2
		C78.2,1.8,100.2,23.8,100.2,51"/>
	<path class="st1" d="M66,33.2h7.6c0.8,0,1.4,0.3,1.9,0.8c0.5,0.5,0.8,1.2,0.8,1.9v27.7H77c0.8,0,1.4,0.3,1.9,0.8
		c0.5,0.5,0.8,1.2,0.8,1.9v7.6c0,0.8-0.3,1.4-0.8,1.9l0,0c-0.5,0.5-1.2,0.8-1.9,0.8h-0.6v0.7c0,0.8-0.3,1.4-0.8,1.9h0
		c-0.5,0.5-1.2,0.8-1.9,0.8H66c-0.8,0-1.4-0.3-1.9-0.8c-0.5-0.5-0.8-1.2-0.8-1.9v-0.7H35.6c-0.8,0-1.4-0.3-1.9-0.8
		c-0.5-0.5-0.8-1.2-0.8-1.9v-7.6c0-0.8,0.3-1.4,0.8-1.9v0l0,0l0,0c0.5-0.5,1.2-0.8,1.9-0.8h2.3h0h0h9.2h0h0h9.2h0h0h7v-7v-9.2v-9.2
		v-2.3c0-0.8,0.3-1.4,0.8-1.9h0l0,0C64.6,33.5,65.3,33.2,66,33.2 M64.2,37.8h3.5c0.3,0,0.5,0.2,0.5,0.5s-0.2,0.5-0.5,0.5h-3.5V47
		h3.5c0.3,0,0.5,0.2,0.5,0.5c0,0.3-0.2,0.5-0.5,0.5h-3.5v8.3h3.5c0.3,0,0.5,0.2,0.5,0.5c0,0.3-0.2,0.5-0.5,0.5h-3.5v6.5h1.3h0h0h9.2
		h0h0h0.8V35.9c0-0.5-0.2-1-0.5-1.3c-0.3-0.3-0.8-0.5-1.3-0.5H66c-0.5,0-1,0.2-1.3,0.5l0,0c-0.3,0.3-0.5,0.8-0.5,1.3V37.8z
		 M75.1,64.5V68c0,0.3-0.2,0.5-0.5,0.5c-0.3,0-0.5-0.2-0.5-0.5v-3.5h-8.3V68c0,0.3-0.2,0.5-0.5,0.5c-0.3,0-0.5-0.2-0.5-0.5v-3.5
		h-1.3h-7V68c0,0.3-0.2,0.5-0.5,0.5c-0.3,0-0.5-0.2-0.5-0.5v-3.5h-8.3V68c0,0.3-0.2,0.5-0.5,0.5c-0.3,0-0.5-0.2-0.5-0.5v-3.5h-8.3
		V68c0,0.3-0.2,0.5-0.5,0.5c-0.3,0-0.5-0.2-0.5-0.5v-3.5h-1.8c-0.5,0-1,0.2-1.3,0.5v0c-0.3,0.3-0.5,0.8-0.5,1.3v7.6
		c0,0.5,0.2,1,0.5,1.3c0.3,0.3,0.8,0.5,1.3,0.5h28.1h12.2H77c0.5,0,1-0.2,1.3-0.5l0,0c0.3-0.3,0.5-0.8,0.5-1.3v-7.6
		c0-0.5-0.2-1-0.5-1.3c-0.3-0.3-0.8-0.5-1.3-0.5h-1.1H75.1z M66,79.2h7.6c0.5,0,1-0.2,1.3-0.5h0c0.3-0.3,0.5-0.8,0.5-1.3v-0.7H64.2
		v0.7c0,0.5,0.2,1,0.5,1.3C65.1,79,65.5,79.2,66,79.2"/>
	<path class="st1" d="M22.7,54.4h3.1V40.5h-3.1c-0.3,0-0.5-0.2-0.5-0.5v-2.8c0-0.2,0.1-0.3,0.2-0.4L39.1,22c0.2-0.2,0.4-0.1,0.6,0h0
		l16.9,14.9c0.1,0.1,0.2,0.2,0.2,0.3V40c0,0.3-0.2,0.5-0.5,0.5h-3.1v13.9h3.1c0.3,0,0.5,0.2,0.5,0.5v3.6c0,0.3-0.2,0.5-0.5,0.5H22.7
		c-0.3,0-0.5-0.2-0.5-0.5v-3.6C22.3,54.6,22.5,54.4,22.7,54.4 M26.8,54.4h7.3V40.8c0-0.3,0.2-0.5,0.5-0.5h9.9c0.3,0,0.5,0.2,0.5,0.5
		v13.6h7.4V40c0-0.3,0.2-0.5,0.5-0.5h3.1v-2.1L39.4,23L23.2,37.4v2.2h3.1c0.3,0,0.5,0.2,0.5,0.5V54.4z M35,54.4h9V41.2h-9V54.4z
		 M44.5,55.3L44.5,55.3l-10,0l0,0h-8.2h-3.1V58h32.7v-2.7h-3.1H44.5z"/>
</g>
</svg>
