<?xml version="1.0" encoding="utf-8"?>
<!-- Generator: Adobe Illustrator 23.0.4, SVG Export Plug-In . SVG Version: 6.00 Build 0)  -->
<svg version="1.1" id="Capa_1" xmlns="http://www.w3.org/2000/svg" xmlns:xlink="http://www.w3.org/1999/xlink" x="0px" y="0px"
	 width="102px" height="102px" viewBox="0 0 102 102" style="enable-background:new 0 0 102 102;" xml:space="preserve">
<style type="text/css">
	.st0{fill:#BF0D15;}
	.st1{fill-rule:evenodd;clip-rule:evenodd;fill:#FFFFFF;}
</style>
<path class="st0" d="M386.1,1343c0,27.2-22,49.2-49.2,49.2c-27.2,0-49.2-22-49.2-49.2c0-27.2,22-49.2,49.2-49.2
	C364.1,1293.8,386.1,1315.8,386.1,1343"/>
<path class="st1" d="M314,1322v9.1c0,0.7,0.3,1.3,0.7,1.8c0.5,0.5,1.1,0.7,1.8,0.7h37.9c0.7,0,1.3-0.3,1.8-0.7
	c0.5-0.5,0.7-1.1,0.7-1.8v-2.8v-3.5v-2.8c0-0.7-0.3-1.3-0.7-1.8c-0.5-0.5-1.1-0.7-1.8-0.7h-37.9c-0.7,0-1.3,0.3-1.8,0.7l0,0
	C314.2,1320.7,314,1321.3,314,1322 M337.7,1351.7c0.6,0.2,1.2,0.5,1.7,1c0.7,0.7,1.1,1.6,1.1,2.7v16.6c0,1-0.4,2-1.1,2.7l0,0
	c-0.7,0.7-1.6,1.1-2.7,1.1h-2.5c-1,0-2-0.4-2.7-1.1c-0.7-0.7-1.1-1.6-1.1-2.7v-16.6c0-1,0.4-2,1.1-2.7v0l0,0l0,0
	c0.5-0.5,1-0.8,1.7-1v-8.4v-1.6c0-0.3,0.3-0.6,0.6-0.6h1.6h24.7v-12.1h-2v2.2c0,1-0.4,2-1.1,2.7c-0.7,0.7-1.6,1.1-2.7,1.1h-37.9
	c-1,0-2-0.4-2.7-1.1c-0.7-0.7-1.1-1.6-1.1-2.7v-9.1c0-1,0.4-2,1.1-2.7l0,0c0.7-0.7,1.6-1.1,2.7-1.1h37.9c1,0,2,0.4,2.7,1.1h0l0,0
	c0.7,0.7,1.1,1.6,1.1,2.7v2.2h5.9c0.3,0,0.6,0.3,0.6,0.6v1.6v1.8v15v1.6c0,0.3-0.3,0.6-0.6,0.6h-1.6h-24.7V1351.7z M334.2,1352.8
	c-0.7,0-1.3,0.3-1.8,0.7l0,0c-0.5,0.5-0.7,1.1-0.7,1.8v16.6c0,0.7,0.3,1.3,0.7,1.8c0.5,0.5,1.1,0.7,1.8,0.7h2.5
	c0.7,0,1.3-0.3,1.8-0.7l0,0c0.5-0.5,0.7-1.1,0.7-1.8v-16.6c0-0.7-0.3-1.3-0.7-1.8c-0.5-0.5-1.1-0.7-1.8-0.7H334.2z M334.4,1351.5
	v-8.3v-1h1h25.3c0.3,0,0.6-0.3,0.6-0.6v-13.4c0-0.3-0.3-0.6-0.6-0.6h-2.6v-2.2h5.2v1v1.8v15v1h-1h-25.3c-0.3,0-0.6,0.3-0.6,0.6v6.6
	H334.4z"/>
<path class="st0" d="M386.1,1343c0,27.2-22,49.2-49.2,49.2c-27.2,0-49.2-22-49.2-49.2c0-27.2,22-49.2,49.2-49.2
	C364.1,1293.8,386.1,1315.8,386.1,1343"/>
<path class="st1" d="M314,1322v9.1c0,0.7,0.3,1.3,0.7,1.8c0.5,0.5,1.1,0.7,1.8,0.7h37.9c0.7,0,1.3-0.3,1.8-0.7
	c0.5-0.5,0.7-1.1,0.7-1.8v-2.8v-3.5v-2.8c0-0.7-0.3-1.3-0.7-1.8c-0.5-0.5-1.1-0.7-1.8-0.7h-37.9c-0.7,0-1.3,0.3-1.8,0.7l0,0
	C314.2,1320.7,314,1321.3,314,1322 M337.7,1351.7c0.6,0.2,1.2,0.5,1.7,1c0.7,0.7,1.1,1.6,1.1,2.7v16.6c0,1-0.4,2-1.1,2.7l0,0
	c-0.7,0.7-1.6,1.1-2.7,1.1h-2.5c-1,0-2-0.4-2.7-1.1c-0.7-0.7-1.1-1.6-1.1-2.7v-16.6c0-1,0.4-2,1.1-2.7v0l0,0l0,0
	c0.5-0.5,1-0.8,1.7-1v-8.4v-1.6c0-0.3,0.3-0.6,0.6-0.6h1.6h24.7v-12.1h-2v2.2c0,1-0.4,2-1.1,2.7c-0.7,0.7-1.6,1.1-2.7,1.1h-37.9
	c-1,0-2-0.4-2.7-1.1c-0.7-0.7-1.1-1.6-1.1-2.7v-9.1c0-1,0.4-2,1.1-2.7l0,0c0.7-0.7,1.6-1.1,2.7-1.1h37.9c1,0,2,0.4,2.7,1.1h0l0,0
	c0.7,0.7,1.1,1.6,1.1,2.7v2.2h5.9c0.3,0,0.6,0.3,0.6,0.6v1.6v1.8v15v1.6c0,0.3-0.3,0.6-0.6,0.6h-1.6h-24.7V1351.7z M334.2,1352.8
	c-0.7,0-1.3,0.3-1.8,0.7l0,0c-0.5,0.5-0.7,1.1-0.7,1.8v16.6c0,0.7,0.3,1.3,0.7,1.8c0.5,0.5,1.1,0.7,1.8,0.7h2.5
	c0.7,0,1.3-0.3,1.8-0.7l0,0c0.5-0.5,0.7-1.1,0.7-1.8v-16.6c0-0.7-0.3-1.3-0.7-1.8c-0.5-0.5-1.1-0.7-1.8-0.7H334.2z M334.4,1351.5
	v-8.3v-1h1h25.3c0.3,0,0.6-0.3,0.6-0.6v-13.4c0-0.3-0.3-0.6-0.6-0.6h-2.6v-2.2h5.2v1v1.8v15v1h-1h-25.3c-0.3,0-0.6,0.3-0.6,0.6v6.6
	H334.4z"/>
<g>
	<path class="st0" d="M51,100.2c-27.2,0-49.2-22-49.2-49.2c0-27.2,22-49.2,49.2-49.2c27.2,0,49.2,22,49.2,49.2"/>
	<path class="st0" d="M100.2,51c0,27.2-22,49.2-49.2,49.2"/>
	<path class="st1" d="M29,23.9l7.2,0l0,0l0,0l38.8,0c1.1,0,2.2,0.5,2.9,1.2c0.8,0.8,1.2,1.8,1.2,2.9h0l0,14.1v0v0l0,31.7
		c0,1.1-0.5,2.2-1.2,2.9c-0.8,0.8-1.8,1.2-2.9,1.2l-46.1,0c-1.1,0-2.2-0.5-2.9-1.2c-0.8-0.8-1.2-1.8-1.2-2.9l0-14.1v0v0l0-31.7h0v0
		h0c0-1.1,0.5-2.2,1.2-2.9C26.8,24.4,27.8,23.9,29,23.9L29,23.9L29,23.9z M52.7,42.9v16.2h15.7c0,0,0,0,0.1,0l9.3,0l0-16.2l-10,0
		c0,0-0.1,0-0.1,0H52.7z M51.3,59.1V42.9H36.2l-0.1,0l-10,0l0,16.2l10,0c0,0,0.1,0,0.1,0H51.3z M68.5,60.5L68.5,60.5l0,16.2l6.6,0
		c0.8,0,1.5-0.3,2-0.8c0.5-0.5,0.8-1.2,0.8-2l0-13.4L68.5,60.5z M67.1,60.5H52H36.9l0,16.2l30.2,0L67.1,60.5z M36.9,41.5H52h15.1
		l0-16.2l-30.2,0L36.9,41.5z M35.5,76.7l0-16.2l-9.4,0l0,13.4c0,0.8,0.3,1.5,0.8,2c0.5,0.5,1.2,0.8,2,0.8L35.5,76.7z M26.2,41.5
		l9.4,0l0-16.2l-6.6,0v0v0c-0.8,0-1.5,0.3-2,0.8c-0.5,0.5-0.8,1.2-0.8,2h0v0h0L26.2,41.5z M68.5,25.3l0,16.2l9.4,0l0-13.4h0
		c0-0.8-0.3-1.5-0.8-2c-0.5-0.5-1.2-0.8-2-0.8L68.5,25.3z"/>
</g>
</svg>
