<?xml version="1.0" encoding="utf-8"?>
<!-- Generator: Adobe Illustrator 23.0.4, SVG Export Plug-In . SVG Version: 6.00 Build 0)  -->
<svg version="1.1" id="Capa_1" xmlns="http://www.w3.org/2000/svg" xmlns:xlink="http://www.w3.org/1999/xlink" x="0px" y="0px"
	 width="29px" height="41px" viewBox="0 0 29 41" style="enable-background:new 0 0 29 41;" xml:space="preserve">
<style type="text/css">
	.st0{fill-rule:evenodd;clip-rule:evenodd;fill:#BF0D15;}
</style>
<g>
	<path class="st0" d="M5.6,2.3h16.9c0.7,0,1.3,0.3,1.8,0.7l0,0C24.7,3.5,25,4.1,25,4.8v30.5c0,0.7-0.3,1.3-0.7,1.8
		c-0.5,0.5-1.1,0.7-1.8,0.7H5.6c-0.7,0-1.3-0.3-1.8-0.7l0,0l0,0c-0.4-0.5-0.7-1.1-0.7-1.8V4.8c0-0.7,0.3-1.3,0.7-1.8
		C4.3,2.6,4.9,2.3,5.6,2.3 M11.8,35h4.5c0.2,0,0.4-0.2,0.4-0.4c0-0.2-0.2-0.4-0.4-0.4h-4.5c-0.2,0-0.4,0.2-0.4,0.4
		C11.4,34.8,11.5,35,11.8,35 M5.6,5.7c-0.2,0-0.4,0.2-0.4,0.4v26.2c0,0.2,0.2,0.4,0.4,0.4h16.8c0.2,0,0.4-0.2,0.4-0.4V6.1
		c0-0.2-0.2-0.4-0.4-0.4H5.6z M22,6.5H6v25.4h16V6.5z M22.5,3.1H5.6c-0.5,0-0.9,0.2-1.2,0.5C4.1,3.9,3.9,4.3,3.9,4.8v30.5
		c0,0.5,0.2,0.9,0.5,1.2c0.3,0.3,0.7,0.5,1.2,0.5h16.9c0.5,0,0.9-0.2,1.2-0.5c0.3-0.3,0.5-0.7,0.5-1.2V4.8c0-0.5-0.2-0.9-0.5-1.2
		l0,0C23.3,3.3,22.9,3.1,22.5,3.1"/>
</g>
</svg>
