<?xml version="1.0" encoding="utf-8"?>
<!-- Generator: Adobe Illustrator 23.0.4, SVG Export Plug-In . SVG Version: 6.00 Build 0)  -->
<svg version="1.1" id="Capa_1" xmlns="http://www.w3.org/2000/svg" xmlns:xlink="http://www.w3.org/1999/xlink" x="0px" y="0px"
	 width="102px" height="102px" viewBox="0 0 102 102" style="enable-background:new 0 0 102 102;" xml:space="preserve">
<style type="text/css">
	.st0{fill:#BF0D15;}
	.st1{fill-rule:evenodd;clip-rule:evenodd;fill:#FFFFFF;}
	.st2{fill:#FFFFFF;}
</style>
<path class="st0" d="M386.1,1343c0,27.2-22,49.2-49.2,49.2c-27.2,0-49.2-22-49.2-49.2c0-27.2,22-49.2,49.2-49.2
	C364.1,1293.8,386.1,1315.8,386.1,1343"/>
<path class="st1" d="M314,1322v9.1c0,0.7,0.3,1.3,0.7,1.8c0.5,0.5,1.1,0.7,1.8,0.7h37.9c0.7,0,1.3-0.3,1.8-0.7
	c0.5-0.5,0.7-1.1,0.7-1.8v-2.8v-3.5v-2.8c0-0.7-0.3-1.3-0.7-1.8c-0.5-0.5-1.1-0.7-1.8-0.7h-37.9c-0.7,0-1.3,0.3-1.8,0.7l0,0
	C314.2,1320.7,314,1321.3,314,1322 M337.7,1351.7c0.6,0.2,1.2,0.5,1.7,1c0.7,0.7,1.1,1.6,1.1,2.7v16.6c0,1-0.4,2-1.1,2.7l0,0
	c-0.7,0.7-1.6,1.1-2.7,1.1h-2.5c-1,0-2-0.4-2.7-1.1c-0.7-0.7-1.1-1.6-1.1-2.7v-16.6c0-1,0.4-2,1.1-2.7v0l0,0l0,0
	c0.5-0.5,1-0.8,1.7-1v-8.4v-1.6c0-0.3,0.3-0.6,0.6-0.6h1.6h24.7v-12.1h-2v2.2c0,1-0.4,2-1.1,2.7c-0.7,0.7-1.6,1.1-2.7,1.1h-37.9
	c-1,0-2-0.4-2.7-1.1c-0.7-0.7-1.1-1.6-1.1-2.7v-9.1c0-1,0.4-2,1.1-2.7l0,0c0.7-0.7,1.6-1.1,2.7-1.1h37.9c1,0,2,0.4,2.7,1.1h0l0,0
	c0.7,0.7,1.1,1.6,1.1,2.7v2.2h5.9c0.3,0,0.6,0.3,0.6,0.6v1.6v1.8v15v1.6c0,0.3-0.3,0.6-0.6,0.6h-1.6h-24.7V1351.7z M334.2,1352.8
	c-0.7,0-1.3,0.3-1.8,0.7l0,0c-0.5,0.5-0.7,1.1-0.7,1.8v16.6c0,0.7,0.3,1.3,0.7,1.8c0.5,0.5,1.1,0.7,1.8,0.7h2.5
	c0.7,0,1.3-0.3,1.8-0.7l0,0c0.5-0.5,0.7-1.1,0.7-1.8v-16.6c0-0.7-0.3-1.3-0.7-1.8c-0.5-0.5-1.1-0.7-1.8-0.7H334.2z M334.4,1351.5
	v-8.3v-1h1h25.3c0.3,0,0.6-0.3,0.6-0.6v-13.4c0-0.3-0.3-0.6-0.6-0.6h-2.6v-2.2h5.2v1v1.8v15v1h-1h-25.3c-0.3,0-0.6,0.3-0.6,0.6v6.6
	H334.4z"/>
<path class="st0" d="M386.1,1343c0,27.2-22,49.2-49.2,49.2c-27.2,0-49.2-22-49.2-49.2c0-27.2,22-49.2,49.2-49.2
	C364.1,1293.8,386.1,1315.8,386.1,1343"/>
<path class="st1" d="M314,1322v9.1c0,0.7,0.3,1.3,0.7,1.8c0.5,0.5,1.1,0.7,1.8,0.7h37.9c0.7,0,1.3-0.3,1.8-0.7
	c0.5-0.5,0.7-1.1,0.7-1.8v-2.8v-3.5v-2.8c0-0.7-0.3-1.3-0.7-1.8c-0.5-0.5-1.1-0.7-1.8-0.7h-37.9c-0.7,0-1.3,0.3-1.8,0.7l0,0
	C314.2,1320.7,314,1321.3,314,1322 M337.7,1351.7c0.6,0.2,1.2,0.5,1.7,1c0.7,0.7,1.1,1.6,1.1,2.7v16.6c0,1-0.4,2-1.1,2.7l0,0
	c-0.7,0.7-1.6,1.1-2.7,1.1h-2.5c-1,0-2-0.4-2.7-1.1c-0.7-0.7-1.1-1.6-1.1-2.7v-16.6c0-1,0.4-2,1.1-2.7v0l0,0l0,0
	c0.5-0.5,1-0.8,1.7-1v-8.4v-1.6c0-0.3,0.3-0.6,0.6-0.6h1.6h24.7v-12.1h-2v2.2c0,1-0.4,2-1.1,2.7c-0.7,0.7-1.6,1.1-2.7,1.1h-37.9
	c-1,0-2-0.4-2.7-1.1c-0.7-0.7-1.1-1.6-1.1-2.7v-9.1c0-1,0.4-2,1.1-2.7l0,0c0.7-0.7,1.6-1.1,2.7-1.1h37.9c1,0,2,0.4,2.7,1.1h0l0,0
	c0.7,0.7,1.1,1.6,1.1,2.7v2.2h5.9c0.3,0,0.6,0.3,0.6,0.6v1.6v1.8v15v1.6c0,0.3-0.3,0.6-0.6,0.6h-1.6h-24.7V1351.7z M334.2,1352.8
	c-0.7,0-1.3,0.3-1.8,0.7l0,0c-0.5,0.5-0.7,1.1-0.7,1.8v16.6c0,0.7,0.3,1.3,0.7,1.8c0.5,0.5,1.1,0.7,1.8,0.7h2.5
	c0.7,0,1.3-0.3,1.8-0.7l0,0c0.5-0.5,0.7-1.1,0.7-1.8v-16.6c0-0.7-0.3-1.3-0.7-1.8c-0.5-0.5-1.1-0.7-1.8-0.7H334.2z M334.4,1351.5
	v-8.3v-1h1h25.3c0.3,0,0.6-0.3,0.6-0.6v-13.4c0-0.3-0.3-0.6-0.6-0.6h-2.6v-2.2h5.2v1v1.8v15v1h-1h-25.3c-0.3,0-0.6,0.3-0.6,0.6v6.6
	H334.4z"/>
<g>
	<path class="st0" d="M100.2,51c0,27.2-22,49.2-49.2,49.2c-27.2,0-49.2-22-49.2-49.2c0-27.2,22-49.2,49.2-49.2
		C78.2,1.8,100.2,23.8,100.2,51"/>
	<path class="st1" d="M29.5,68.6c-3.7,0-7.1-1.5-9.5-3.9c-2.4-2.4-3.9-5.8-3.9-9.5c0-3.4,1.2-6.4,3.3-8.8c1.9-2.2,4.6-3.9,7.6-4.4
		c0.7-4.4,3-8.3,6.2-11.2c3.3-2.9,7.7-4.7,12.4-4.7c3.1,0,6.1,0.8,8.6,2.1c2.5,1.3,4.7,3.2,6.4,5.4c0.4-0.1,0.9-0.2,1.4-0.3
		c0.6-0.1,1.3-0.1,1.9-0.1v0c2.9,0,5.6,0.9,7.8,2.5c2.1,1.5,3.8,3.7,4.8,6.1c3.2,0.5,6,2,8.1,4.3c2.1,2.4,3.4,5.5,3.4,9
		c0,3.7-1.5,7.1-3.9,9.5c-2.4,2.4-5.8,3.9-9.5,3.9L29.5,68.6z M21.1,63.6c2.2,2.2,5.1,3.5,8.4,3.5l45.1,0c3.3,0,6.3-1.3,8.4-3.5
		c2.2-2.2,3.5-5.1,3.5-8.4c0-3.1-1.1-5.8-3-8v0c-1.9-2.1-4.6-3.6-7.6-3.9c-0.3,0-0.6-0.2-0.7-0.5c-0.8-2.4-2.3-4.4-4.4-5.8
		c-1.9-1.4-4.3-2.2-6.9-2.2v0c-0.6,0-1.2,0-1.7,0.1c-0.6,0.1-1.1,0.2-1.7,0.4v0c-0.3,0.1-0.7,0-0.8-0.3c-1.6-2.3-3.7-4.1-6.2-5.4
		c-2.4-1.2-5.1-1.9-7.9-1.9c-4.4,0-8.4,1.6-11.4,4.3c-3.1,2.7-5.2,6.5-5.7,10.7c0,0.4-0.3,0.7-0.7,0.7c-2.9,0.4-5.4,1.9-7.3,4
		c-1.8,2.1-2.9,4.8-2.9,7.8C17.6,58.4,19,61.4,21.1,63.6"/>
	<path class="st2" d="M42.9,59.3c-1.1,0-2.1-0.2-3.1-0.6c-1-0.4-1.8-0.9-2.6-1.6c-0.7-0.7-1.3-1.5-1.7-2.4c-0.4-0.9-0.6-1.9-0.6-3
		c0-1,0.2-2,0.6-2.9c0.4-0.9,1-1.7,1.7-2.4c0.7-0.7,1.6-1.3,2.5-1.7c1-0.4,2-0.6,3.2-0.6c0.9,0,1.8,0.1,2.7,0.4
		c0.9,0.3,1.5,0.6,2.1,1l-1.5,2.9c-0.7-0.5-1.6-0.8-2.6-0.8c-0.9,0-1.6,0.2-2.3,0.6c-0.6,0.4-1.1,0.9-1.4,1.5
		c-0.3,0.6-0.5,1.3-0.5,2c0,0.8,0.2,1.4,0.5,2.1c0.3,0.6,0.8,1.1,1.5,1.5c0.6,0.4,1.4,0.5,2.2,0.5c0.5,0,1-0.1,1.4-0.2
		c0.4-0.1,0.8-0.3,1.1-0.6l1.5,2.9c-0.5,0.4-1.2,0.7-2.1,1C44.7,59.1,43.8,59.3,42.9,59.3"/>
	<path class="st2" d="M58.3,59.3c-1.6,0-3-0.3-4.3-1c-1.3-0.6-2.3-1.5-3-2.7c-0.7-1.1-1.1-2.5-1.1-4c0-1.5,0.4-2.8,1.1-4
		c0.7-1.1,1.7-2,3-2.7c1.3-0.6,2.7-1,4.3-1c1.6,0,3,0.3,4.3,1c1.3,0.6,2.3,1.5,3,2.7c0.7,1.1,1.1,2.5,1.1,4c0,1.5-0.4,2.8-1.1,4
		s-1.7,2-3,2.7C61.3,58.9,59.8,59.3,58.3,59.3 M58.3,55.6c0.7,0,1.4-0.2,2-0.5c0.6-0.3,1.1-0.8,1.4-1.4c0.3-0.6,0.5-1.3,0.5-2.1
		s-0.2-1.5-0.5-2.1c-0.3-0.6-0.8-1.1-1.4-1.4c-0.6-0.3-1.3-0.5-2-0.5c-0.7,0-1.4,0.2-2,0.5c-0.6,0.3-1.1,0.8-1.4,1.4
		c-0.3,0.6-0.5,1.3-0.5,2.1s0.2,1.5,0.5,2.1c0.3,0.6,0.8,1.1,1.4,1.4C56.9,55.4,57.5,55.6,58.3,55.6"/>
</g>
</svg>
