<?xml version="1.0" encoding="utf-8"?>
<!-- Generator: Adobe Illustrator 23.0.4, SVG Export Plug-In . SVG Version: 6.00 Build 0)  -->
<svg version="1.1" id="Capa_1" xmlns="http://www.w3.org/2000/svg" xmlns:xlink="http://www.w3.org/1999/xlink" x="0px" y="0px"
	 width="125px" height="125px" viewBox="0 0 125 125" style="enable-background:new 0 0 125 125;" xml:space="preserve">
<style type="text/css">
	.st0{fill:#BF0D15;}
	.st1{fill-rule:evenodd;clip-rule:evenodd;fill:#FFFFFF;}
</style>
<path class="st0" d="M399.3,1360.3c0,27.2-22,49.2-49.2,49.2c-27.2,0-49.2-22-49.2-49.2c0-27.2,22-49.2,49.2-49.2
	C377.2,1311.1,399.3,1333.2,399.3,1360.3"/>
<path class="st1" d="M327.1,1339.4v9.1c0,0.7,0.3,1.3,0.7,1.8c0.5,0.5,1.1,0.7,1.8,0.7h37.9c0.7,0,1.3-0.3,1.8-0.7
	c0.5-0.5,0.7-1.1,0.7-1.8v-2.8v-3.5v-2.8c0-0.7-0.3-1.3-0.7-1.8c-0.5-0.5-1.1-0.7-1.8-0.7h-37.9c-0.7,0-1.3,0.3-1.8,0.7l0,0
	C327.4,1338.1,327.1,1338.7,327.1,1339.4 M350.8,1369c0.6,0.2,1.2,0.5,1.7,1c0.7,0.7,1.1,1.6,1.1,2.7v16.6c0,1-0.4,2-1.1,2.7l0,0
	c-0.7,0.7-1.6,1.1-2.7,1.1h-2.5c-1,0-2-0.4-2.7-1.1c-0.7-0.7-1.1-1.6-1.1-2.7v-16.6c0-1,0.4-2,1.1-2.7v0l0,0l0,0
	c0.5-0.5,1-0.8,1.7-1v-8.4v-1.6c0-0.3,0.3-0.6,0.6-0.6h1.6h24.7v-12.1h-2v2.2c0,1-0.4,2-1.1,2.7c-0.7,0.7-1.6,1.1-2.7,1.1h-37.9
	c-1,0-2-0.4-2.7-1.1c-0.7-0.7-1.1-1.6-1.1-2.7v-9.1c0-1,0.4-2,1.1-2.7l0,0c0.7-0.7,1.6-1.1,2.7-1.1h37.9c1,0,2,0.4,2.7,1.1h0l0,0
	c0.7,0.7,1.1,1.6,1.1,2.7v2.2h5.9c0.3,0,0.6,0.3,0.6,0.6v1.6v1.8v15v1.6c0,0.3-0.3,0.6-0.6,0.6h-1.6h-24.7V1369z M347.3,1370.2
	c-0.7,0-1.3,0.3-1.8,0.7l0,0c-0.5,0.5-0.7,1.1-0.7,1.8v16.6c0,0.7,0.3,1.3,0.7,1.8c0.5,0.5,1.1,0.7,1.8,0.7h2.5
	c0.7,0,1.3-0.3,1.8-0.7l0,0c0.5-0.5,0.7-1.1,0.7-1.8v-16.6c0-0.7-0.3-1.3-0.7-1.8c-0.5-0.5-1.1-0.7-1.8-0.7H347.3z M347.6,1368.9
	v-8.3v-1h1h25.3c0.3,0,0.6-0.3,0.6-0.6v-13.4c0-0.3-0.3-0.6-0.6-0.6h-2.6v-2.2h5.2v1v1.8v15v1h-1h-25.3c-0.3,0-0.6,0.3-0.6,0.6v6.6
	H347.6z"/>
<path class="st0" d="M399.3,1360.3c0,27.2-22,49.2-49.2,49.2c-27.2,0-49.2-22-49.2-49.2c0-27.2,22-49.2,49.2-49.2
	C377.2,1311.1,399.3,1333.2,399.3,1360.3"/>
<path class="st1" d="M327.1,1339.4v9.1c0,0.7,0.3,1.3,0.7,1.8c0.5,0.5,1.1,0.7,1.8,0.7h37.9c0.7,0,1.3-0.3,1.8-0.7
	c0.5-0.5,0.7-1.1,0.7-1.8v-2.8v-3.5v-2.8c0-0.7-0.3-1.3-0.7-1.8c-0.5-0.5-1.1-0.7-1.8-0.7h-37.9c-0.7,0-1.3,0.3-1.8,0.7l0,0
	C327.4,1338.1,327.1,1338.7,327.1,1339.4 M350.8,1369c0.6,0.2,1.2,0.5,1.7,1c0.7,0.7,1.1,1.6,1.1,2.7v16.6c0,1-0.4,2-1.1,2.7l0,0
	c-0.7,0.7-1.6,1.1-2.7,1.1h-2.5c-1,0-2-0.4-2.7-1.1c-0.7-0.7-1.1-1.6-1.1-2.7v-16.6c0-1,0.4-2,1.1-2.7v0l0,0l0,0
	c0.5-0.5,1-0.8,1.7-1v-8.4v-1.6c0-0.3,0.3-0.6,0.6-0.6h1.6h24.7v-12.1h-2v2.2c0,1-0.4,2-1.1,2.7c-0.7,0.7-1.6,1.1-2.7,1.1h-37.9
	c-1,0-2-0.4-2.7-1.1c-0.7-0.7-1.1-1.6-1.1-2.7v-9.1c0-1,0.4-2,1.1-2.7l0,0c0.7-0.7,1.6-1.1,2.7-1.1h37.9c1,0,2,0.4,2.7,1.1h0l0,0
	c0.7,0.7,1.1,1.6,1.1,2.7v2.2h5.9c0.3,0,0.6,0.3,0.6,0.6v1.6v1.8v15v1.6c0,0.3-0.3,0.6-0.6,0.6h-1.6h-24.7V1369z M347.3,1370.2
	c-0.7,0-1.3,0.3-1.8,0.7l0,0c-0.5,0.5-0.7,1.1-0.7,1.8v16.6c0,0.7,0.3,1.3,0.7,1.8c0.5,0.5,1.1,0.7,1.8,0.7h2.5
	c0.7,0,1.3-0.3,1.8-0.7l0,0c0.5-0.5,0.7-1.1,0.7-1.8v-16.6c0-0.7-0.3-1.3-0.7-1.8c-0.5-0.5-1.1-0.7-1.8-0.7H347.3z M347.6,1368.9
	v-8.3v-1h1h25.3c0.3,0,0.6-0.3,0.6-0.6v-13.4c0-0.3-0.3-0.6-0.6-0.6h-2.6v-2.2h5.2v1v1.8v15v1h-1h-25.3c-0.3,0-0.6,0.3-0.6,0.6v6.6
	H347.6z"/>
<g>
	<path class="st0" d="M4.6,62.5c0-32,25.9-57.9,57.9-57.9s57.9,25.9,57.9,57.9"/>
	<path class="st0" d="M120.4,62.5c0,32-25.9,57.9-57.9,57.9S4.6,94.5,4.6,62.5"/>
	<path class="st1" d="M32.8,50.4l18.6-1.7c0.2,0,0.5-0.1,0.6-0.2c0.2-0.1,0.3-0.3,0.4-0.5l7.4-17.1c0.2-0.6,0.6-1,1.1-1.3
		c0.5-0.3,1-0.5,1.6-0.5c0.6,0,1.2,0.2,1.6,0.5c0.5,0.3,0.9,0.8,1.1,1.3l7.4,17.1c0.1,0.2,0.2,0.4,0.4,0.5c0.2,0.1,0.4,0.2,0.6,0.2
		l18.6,1.8c0.6,0.1,1.1,0.3,1.6,0.6c0.4,0.4,0.8,0.8,1,1.4l0,0.1c0.2,0.6,0.2,1.1,0,1.6c-0.2,0.6-0.5,1.1-0.9,1.4l-14,12.3
		c-0.2,0.2-0.3,0.4-0.4,0.6c-0.1,0.2-0.1,0.4,0,0.7l4.1,18.2c0.1,0.6,0.1,1.2-0.1,1.7c-0.2,0.5-0.6,1-1,1.4c-0.5,0.4-1,0.5-1.6,0.6
		c-0.6,0-1.1-0.1-1.6-0.4l-16-9.5c-0.2-0.1-0.4-0.2-0.6-0.2c-0.2,0-0.4,0.1-0.6,0.2l-16.1,9.5c-0.5,0.3-1.1,0.4-1.6,0.4
		c-0.6,0-1.1-0.2-1.6-0.6h0c-0.5-0.4-0.8-0.8-1-1.4c-0.2-0.5-0.2-1.1-0.1-1.7l4.1-18.2l0,0c0-0.2,0-0.4,0-0.6
		c-0.1-0.2-0.2-0.4-0.4-0.6l-14-12.3c-0.4-0.4-0.8-0.9-0.9-1.4c-0.1-0.5-0.1-1.1,0-1.7c0.2-0.6,0.5-1.1,1-1.4l0,0
		C31.6,50.7,32.2,50.5,32.8,50.4 M51.5,50.3l-18.6,1.7c-0.2,0-0.5,0.1-0.7,0.2l0,0c-0.2,0.1-0.3,0.4-0.4,0.6c-0.1,0.3-0.1,0.5,0,0.7
		c0.1,0.2,0.2,0.4,0.4,0.6l14,12.3c0.4,0.4,0.7,0.8,0.9,1.3v0c0.2,0.5,0.2,1,0.1,1.5l0,0L43,87.7c-0.1,0.3,0,0.5,0,0.7
		c0.1,0.2,0.2,0.4,0.5,0.6v0c0.2,0.2,0.5,0.2,0.7,0.2c0.2,0,0.5-0.1,0.7-0.2L61,79.6c0.5-0.3,1-0.4,1.5-0.4c0.5,0,1,0.1,1.5,0.4
		l16,9.5c0.2,0.1,0.5,0.2,0.7,0.2c0.2,0,0.5-0.1,0.7-0.3c0.2-0.2,0.4-0.4,0.4-0.6c0.1-0.2,0.1-0.5,0-0.7l-4.1-18.2
		c-0.1-0.5-0.1-1.1,0.1-1.6c0.2-0.5,0.5-0.9,0.9-1.3l14-12.3c0.2-0.2,0.3-0.4,0.4-0.6c0.1-0.2,0.1-0.5,0-0.7l0,0
		c-0.1-0.3-0.2-0.5-0.4-0.6c-0.2-0.1-0.4-0.2-0.7-0.3l-18.6-1.8c-0.6-0.1-1.1-0.2-1.5-0.5c-0.4-0.3-0.8-0.7-1-1.2l-7.4-17.1
		c-0.1-0.2-0.3-0.4-0.5-0.6c-0.2-0.1-0.4-0.2-0.7-0.2s-0.5,0.1-0.7,0.2c-0.2,0.1-0.4,0.3-0.5,0.6l-7.4,17.1c-0.2,0.5-0.6,0.9-1,1.2
		C52.5,50.1,52,50.3,51.5,50.3"/>
</g>
</svg>
