<?xml version="1.0" encoding="utf-8"?>
<!-- Generator: Adobe Illustrator 23.0.4, SVG Export Plug-In . SVG Version: 6.00 Build 0)  -->
<svg version="1.1" id="Capa_1" xmlns="http://www.w3.org/2000/svg" xmlns:xlink="http://www.w3.org/1999/xlink" x="0px" y="0px"
	 width="125px" height="125px" viewBox="0 0 125 125" style="enable-background:new 0 0 125 125;" xml:space="preserve">
<style type="text/css">
	.st0{fill:#BF0D15;}
	.st1{fill-rule:evenodd;clip-rule:evenodd;fill:#FFFFFF;}
</style>
<path class="st0" d="M399.3,1360.3c0,27.2-22,49.2-49.2,49.2c-27.2,0-49.2-22-49.2-49.2c0-27.2,22-49.2,49.2-49.2
	C377.2,1311.1,399.3,1333.2,399.3,1360.3"/>
<path class="st1" d="M327.1,1339.4v9.1c0,0.7,0.3,1.3,0.7,1.8c0.5,0.5,1.1,0.7,1.8,0.7h37.9c0.7,0,1.3-0.3,1.8-0.7
	c0.5-0.5,0.7-1.1,0.7-1.8v-2.8v-3.5v-2.8c0-0.7-0.3-1.3-0.7-1.8c-0.5-0.5-1.1-0.7-1.8-0.7h-37.9c-0.7,0-1.3,0.3-1.8,0.7l0,0
	C327.4,1338.1,327.1,1338.7,327.1,1339.4 M350.8,1369c0.6,0.2,1.2,0.5,1.7,1c0.7,0.7,1.1,1.6,1.1,2.7v16.6c0,1-0.4,2-1.1,2.7l0,0
	c-0.7,0.7-1.6,1.1-2.7,1.1h-2.5c-1,0-2-0.4-2.7-1.1c-0.7-0.7-1.1-1.6-1.1-2.7v-16.6c0-1,0.4-2,1.1-2.7v0l0,0l0,0
	c0.5-0.5,1-0.8,1.7-1v-8.4v-1.6c0-0.3,0.3-0.6,0.6-0.6h1.6h24.7v-12.1h-2v2.2c0,1-0.4,2-1.1,2.7c-0.7,0.7-1.6,1.1-2.7,1.1h-37.9
	c-1,0-2-0.4-2.7-1.1c-0.7-0.7-1.1-1.6-1.1-2.7v-9.1c0-1,0.4-2,1.1-2.7l0,0c0.7-0.7,1.6-1.1,2.7-1.1h37.9c1,0,2,0.4,2.7,1.1h0l0,0
	c0.7,0.7,1.1,1.6,1.1,2.7v2.2h5.9c0.3,0,0.6,0.3,0.6,0.6v1.6v1.8v15v1.6c0,0.3-0.3,0.6-0.6,0.6h-1.6h-24.7V1369z M347.3,1370.2
	c-0.7,0-1.3,0.3-1.8,0.7l0,0c-0.5,0.5-0.7,1.1-0.7,1.8v16.6c0,0.7,0.3,1.3,0.7,1.8c0.5,0.5,1.1,0.7,1.8,0.7h2.5
	c0.7,0,1.3-0.3,1.8-0.7l0,0c0.5-0.5,0.7-1.1,0.7-1.8v-16.6c0-0.7-0.3-1.3-0.7-1.8c-0.5-0.5-1.1-0.7-1.8-0.7H347.3z M347.6,1368.9
	v-8.3v-1h1h25.3c0.3,0,0.6-0.3,0.6-0.6v-13.4c0-0.3-0.3-0.6-0.6-0.6h-2.6v-2.2h5.2v1v1.8v15v1h-1h-25.3c-0.3,0-0.6,0.3-0.6,0.6v6.6
	H347.6z"/>
<path class="st0" d="M399.3,1360.3c0,27.2-22,49.2-49.2,49.2c-27.2,0-49.2-22-49.2-49.2c0-27.2,22-49.2,49.2-49.2
	C377.2,1311.1,399.3,1333.2,399.3,1360.3"/>
<path class="st1" d="M327.1,1339.4v9.1c0,0.7,0.3,1.3,0.7,1.8c0.5,0.5,1.1,0.7,1.8,0.7h37.9c0.7,0,1.3-0.3,1.8-0.7
	c0.5-0.5,0.7-1.1,0.7-1.8v-2.8v-3.5v-2.8c0-0.7-0.3-1.3-0.7-1.8c-0.5-0.5-1.1-0.7-1.8-0.7h-37.9c-0.7,0-1.3,0.3-1.8,0.7l0,0
	C327.4,1338.1,327.1,1338.7,327.1,1339.4 M350.8,1369c0.6,0.2,1.2,0.5,1.7,1c0.7,0.7,1.1,1.6,1.1,2.7v16.6c0,1-0.4,2-1.1,2.7l0,0
	c-0.7,0.7-1.6,1.1-2.7,1.1h-2.5c-1,0-2-0.4-2.7-1.1c-0.7-0.7-1.1-1.6-1.1-2.7v-16.6c0-1,0.4-2,1.1-2.7v0l0,0l0,0
	c0.5-0.5,1-0.8,1.7-1v-8.4v-1.6c0-0.3,0.3-0.6,0.6-0.6h1.6h24.7v-12.1h-2v2.2c0,1-0.4,2-1.1,2.7c-0.7,0.7-1.6,1.1-2.7,1.1h-37.9
	c-1,0-2-0.4-2.7-1.1c-0.7-0.7-1.1-1.6-1.1-2.7v-9.1c0-1,0.4-2,1.1-2.7l0,0c0.7-0.7,1.6-1.1,2.7-1.1h37.9c1,0,2,0.4,2.7,1.1h0l0,0
	c0.7,0.7,1.1,1.6,1.1,2.7v2.2h5.9c0.3,0,0.6,0.3,0.6,0.6v1.6v1.8v15v1.6c0,0.3-0.3,0.6-0.6,0.6h-1.6h-24.7V1369z M347.3,1370.2
	c-0.7,0-1.3,0.3-1.8,0.7l0,0c-0.5,0.5-0.7,1.1-0.7,1.8v16.6c0,0.7,0.3,1.3,0.7,1.8c0.5,0.5,1.1,0.7,1.8,0.7h2.5
	c0.7,0,1.3-0.3,1.8-0.7l0,0c0.5-0.5,0.7-1.1,0.7-1.8v-16.6c0-0.7-0.3-1.3-0.7-1.8c-0.5-0.5-1.1-0.7-1.8-0.7H347.3z M347.6,1368.9
	v-8.3v-1h1h25.3c0.3,0,0.6-0.3,0.6-0.6v-13.4c0-0.3-0.3-0.6-0.6-0.6h-2.6v-2.2h5.2v1v1.8v15v1h-1h-25.3c-0.3,0-0.6,0.3-0.6,0.6v6.6
	H347.6z"/>
<g>
	<path class="st0" d="M120.4,62.5c0,32-25.9,57.9-57.9,57.9c-32,0-57.9-25.9-57.9-57.9c0-32,25.9-57.9,57.9-57.9
		C94.5,4.6,120.4,30.5,120.4,62.5"/>
	<path class="st1" d="M57,31.5l-5.7-6.4c-0.3-0.3-0.3-0.9,0.1-1.2c0.2-0.1,0.4-0.2,0.6-0.2v0h23c0.5,0,0.8,0.4,0.8,0.8
		c0,0.2-0.1,0.4-0.2,0.6l-5.7,6.3v4.7l15,12.4c0.6,0.5,1.1,1.1,1.4,1.7c0.3,0.7,0.5,1.4,0.5,2.2v36.3c0,1.4-0.6,2.6-1.5,3.6l-0.1,0
		c-0.9,0.9-2.1,1.4-3.5,1.4H45.2c-1.4,0-2.6-0.6-3.6-1.5v0h0l0,0c-0.9-0.9-1.5-2.2-1.5-3.5V52.5c0-0.8,0.2-1.5,0.5-2.2
		c0.3-0.7,0.8-1.2,1.4-1.7l15-12.4V31.5z M68.2,32.3h-9.6v3.3h9.6V32.3z M62.6,53.1v3.8h-4.2c-0.8,0-1.5,0.3-2.1,0.9l0,0h0
		c-0.5,0.5-0.9,1.3-0.9,2.1v5.7c0,0.8,0.3,1.5,0.9,2.1l0,0c0.5,0.5,1.3,0.9,2.1,0.9h4.2v8.3h-6.3c-0.5,0-0.8,0.4-0.8,0.8
		c0,0.5,0.4,0.8,0.8,0.8h6.3v3.8c0,0.5,0.4,0.8,0.8,0.8s0.8-0.4,0.8-0.8v-3.8h4.2c0.8,0,1.5-0.3,2.1-0.9c0.5-0.5,0.9-1.3,0.9-2.1
		v-5.7c0-0.8-0.3-1.5-0.9-2.1c-0.5-0.5-1.3-0.9-2.1-0.9h-4.2v-8.3h5.2c0.5,0,0.8-0.4,0.8-0.8c0-0.5-0.4-0.8-0.8-0.8h-5.2v-3.8
		c0-0.5-0.4-0.8-0.8-0.8S62.6,52.6,62.6,53.1 M64.3,68.5v8.3h4.2c0.3,0,0.7-0.1,0.9-0.4l0,0c0.2-0.2,0.4-0.5,0.4-0.9v-5.7
		c0-0.3-0.1-0.7-0.4-0.9c-0.2-0.2-0.5-0.4-0.9-0.4H64.3z M62.6,66.8v-8.3h-4.2c-0.3,0-0.7,0.1-0.9,0.4l0,0c-0.2,0.2-0.4,0.5-0.4,0.9
		v5.7c0,0.3,0.1,0.7,0.4,0.9c0.2,0.2,0.5,0.4,0.9,0.4H62.6z M53.8,25.4l4.6,5.2h10l4.6-5.2H53.8z M83.8,49.9L68.6,37.3H58.4
		L43.1,49.9c-0.4,0.3-0.7,0.7-0.9,1.2c-0.2,0.4-0.3,0.9-0.3,1.4v36.3c0,0.9,0.4,1.8,1,2.4h0c0.6,0.6,1.4,1,2.4,1h36.5
		c0.9,0,1.7-0.4,2.3-0.9l0,0c0.6-0.6,1-1.4,1-2.4V52.5c0-0.5-0.1-1-0.3-1.4C84.5,50.6,84.2,50.3,83.8,49.9"/>
</g>
</svg>
