<?xml version="1.0" encoding="utf-8"?>
<!-- Generator: Adobe Illustrator 23.0.4, SVG Export Plug-In . SVG Version: 6.00 Build 0)  -->
<svg version="1.1" id="Capa_1" xmlns="http://www.w3.org/2000/svg" xmlns:xlink="http://www.w3.org/1999/xlink" x="0px" y="0px"
	 width="102px" height="102px" viewBox="0 0 102 102" style="enable-background:new 0 0 102 102;" xml:space="preserve">
<style type="text/css">
	.st0{fill:#BF0D15;}
	.st1{fill:#FFFFFF;}
	.st2{fill:none;stroke:#BF0D15;stroke-width:0.244;stroke-miterlimit:10;}
</style>
<path class="st0" d="M100.4,52.3c0,27.2-22,49.2-49.2,49.2C24.1,101.5,2,79.5,2,52.3c0-27.2,22-49.2,49.2-49.2
	C78.4,3.1,100.4,25.1,100.4,52.3"/>
<path class="st1" d="M70.3,34.6c0-3,0-6.1,0-9.2c0-2.8-2.1-4.9-5-4.9c-3.3,0-6.6,0-9.9,0l-4.2,0l-4.2,0c-3.3,0-6.6,0-9.9,0
	c-2.9,0-5,2.1-5,4.9c0,3.1,0,6.2,0,9.2c0,5.8,0,11.8,0,17.7c0,1.3,0.6,2.7,1.6,3.7c1,0.9,2.3,1.4,3.5,1.4c0.3,0,0.7,0,1,0
	c0.3,0,0.5,0,0.8,0c0.6,0,0.9,0.2,1.1,0.7c0.7,1.1,1.5,2.3,2.3,3.3c1.1,1.2,1.6,2.4,1.6,3.8c0,1.8,0,3.6,0,5.4l0,2.1
	c0,0.9,0,1.7,0,2.6c0,1.9,0,3.9,0,5.9c0.1,3.9,3.1,7,6.9,7c0,0,0.1,0,0.1,0l0.1,0l0.1,0c0,0,0.1,0,0.1,0c3.8-0.1,6.9-3.2,6.9-7
	c0-2,0-4,0-5.9c0-0.9,0-1.7,0-2.6l0-2.1c0-1.8,0-3.6,0-5.4c0-1.4,0.5-2.6,1.6-3.8c0.9-1,1.6-2.1,2.3-3.3c0.3-0.4,0.6-0.7,1.1-0.7
	c0.3,0,0.5,0,0.8,0c0.3,0,0.7,0,1,0c1.2,0.1,2.5-0.4,3.5-1.4c1.1-1,1.7-2.3,1.7-3.7C70.3,46.4,70.3,40.4,70.3,34.6 M56.5,81
	c0,1.8-0.9,3.4-2.4,4.4c0,0-0.1,0-0.1,0.1c0,0-0.1,0.1-0.2,0.1c-0.4,0.2-0.7,0.4-1.1,0.5c-0.5,0.2-1,0.2-1.6,0.2
	c-0.5,0-1.1-0.1-1.6-0.2c-0.4-0.1-0.7-0.3-1.1-0.5c-0.1,0-0.1-0.1-0.2-0.1c0,0-0.1,0-0.1-0.1c-1.5-1-2.4-2.6-2.4-4.4
	c0-2.5,0-5,0-6.9l0,0v-0.2c0-1.2,0-2.4,0-3.6c0-1.3,0-2.6,0-4v0c0-0.1,0-0.2,0.1-0.3c0,0,0,0,0-0.1l0.1-0.3h10.3l0.1,0.3
	c0,0,0,0,0,0.1c0,0.1,0.1,0.2,0.1,0.3c0,1.3,0,2.6,0,4c0,1.2,0,2.4,0,3.6l0,0.2l0,0C56.6,76,56.6,78.5,56.5,81 M68.5,52.3
	c0,1.9-1.2,3.2-3,3.3c-0.5,0-1,0-1.4,0c-0.2,0-0.4,0-0.7,0h-0.4v-0.9c0-0.3,0-0.6,0-0.9c0-0.7-0.1-1.1-0.3-1.3
	c-0.1-0.1-0.2-0.2-0.6-0.2c-0.3,0-0.4,0.1-0.6,0.2c-0.2,0.2-0.3,0.6-0.3,1.3c0.1,2.4-0.8,4.5-2.6,6.2c-0.9,0.9-1.6,1.9-1.8,3
	c-0.2,0.6-0.5,0.9-1.1,0.9h0c-0.3,0-0.6,0-1,0l-1,0l0,0h-0.3H53c-0.6,0-1.1,0-1.7,0c-0.6,0-1.1,0-1.7,0H49c-0.1,0-0.2,0-0.4,0
	l-0.9,0c-0.3,0-0.6,0-1,0h0c-0.6,0-1-0.3-1.1-0.9c-0.3-1.1-0.9-2.1-1.8-3c-1.8-1.7-2.7-3.8-2.6-6.2c0-0.6-0.1-1.1-0.3-1.3
	c-0.1-0.1-0.3-0.2-0.6-0.2c-0.3,0-0.5,0.1-0.6,0.2c-0.2,0.2-0.3,0.7-0.3,1.3c0,0.3,0,0.6,0,0.9v0.9H39c-0.2,0-0.4,0-0.7,0
	c-0.5,0-1,0-1.4,0c-1.8-0.2-3-1.4-3-3.3c0-1.7,0-3.4,0-5.1l0-1.6v-2.3c0-5.8,0-11.6,0-17.4c0-2.4,1.1-3.6,3.6-3.6h19.1
	c2.8,0,5.5,0,8.3,0c2.4,0,3.6,1.1,3.6,3.6c0,5.8,0,11.6,0,17.4v2.3v1.6C68.5,48.8,68.5,50.6,68.5,52.3"/>
<path class="st2" d="M70.3,34.6c0-3,0-6.1,0-9.2c0-2.8-2.1-4.9-5-4.9c-3.3,0-6.6,0-9.9,0l-4.2,0l-4.2,0c-3.3,0-6.6,0-9.9,0
	c-2.9,0-5,2.1-5,4.9c0,3.1,0,6.2,0,9.2c0,5.8,0,11.8,0,17.7c0,1.3,0.6,2.7,1.6,3.7c1,0.9,2.3,1.4,3.5,1.4c0.3,0,0.7,0,1,0
	c0.3,0,0.5,0,0.8,0c0.6,0,0.9,0.2,1.1,0.7c0.7,1.1,1.5,2.3,2.3,3.3c1.1,1.2,1.6,2.4,1.6,3.8c0,1.8,0,3.6,0,5.4l0,2.1
	c0,0.9,0,1.7,0,2.6c0,1.9,0,3.9,0,5.9c0.1,3.9,3.1,7,6.9,7c0,0,0.1,0,0.1,0l0.1,0l0.1,0c0,0,0.1,0,0.1,0c3.8-0.1,6.9-3.2,6.9-7
	c0-2,0-4,0-5.9c0-0.9,0-1.7,0-2.6l0-2.1c0-1.8,0-3.6,0-5.4c0-1.4,0.5-2.6,1.6-3.8c0.9-1,1.6-2.1,2.3-3.3c0.3-0.4,0.6-0.7,1.1-0.7
	c0.3,0,0.5,0,0.8,0c0.3,0,0.7,0,1,0c1.2,0.1,2.5-0.4,3.5-1.4c1.1-1,1.7-2.3,1.7-3.7C70.3,46.4,70.3,40.4,70.3,34.6z M56.5,81
	c0,1.8-0.9,3.4-2.4,4.4c0,0-0.1,0-0.1,0.1c0,0-0.1,0.1-0.2,0.1c-0.4,0.2-0.7,0.4-1.1,0.5c-0.5,0.2-1,0.2-1.6,0.2
	c-0.5,0-1.1-0.1-1.6-0.2c-0.4-0.1-0.7-0.3-1.1-0.5c-0.1,0-0.1-0.1-0.2-0.1c0,0-0.1,0-0.1-0.1c-1.5-1-2.4-2.6-2.4-4.4
	c0-2.5,0-5,0-6.9l0,0v-0.2c0-1.2,0-2.4,0-3.6c0-1.3,0-2.6,0-4v0c0-0.1,0-0.2,0.1-0.3c0,0,0,0,0-0.1l0.1-0.3h10.3l0.1,0.3
	c0,0,0,0,0,0.1c0,0.1,0.1,0.2,0.1,0.3c0,1.3,0,2.6,0,4c0,1.2,0,2.4,0,3.6l0,0.2l0,0C56.6,76,56.6,78.5,56.5,81z M68.5,52.3
	c0,1.9-1.2,3.2-3,3.3c-0.5,0-1,0-1.4,0c-0.2,0-0.4,0-0.7,0h-0.4v-0.9c0-0.3,0-0.6,0-0.9c0-0.7-0.1-1.1-0.3-1.3
	c-0.1-0.1-0.2-0.2-0.6-0.2c-0.3,0-0.4,0.1-0.6,0.2c-0.2,0.2-0.3,0.6-0.3,1.3c0.1,2.4-0.8,4.5-2.6,6.2c-0.9,0.9-1.6,1.9-1.8,3
	c-0.2,0.6-0.5,0.9-1.1,0.9h0c-0.3,0-0.6,0-1,0l-1,0l0,0h-0.3H53c-0.6,0-1.1,0-1.7,0c-0.6,0-1.1,0-1.7,0H49c-0.1,0-0.2,0-0.4,0
	l-0.9,0c-0.3,0-0.6,0-1,0h0c-0.6,0-1-0.3-1.1-0.9c-0.3-1.1-0.9-2.1-1.8-3c-1.8-1.7-2.7-3.8-2.6-6.2c0-0.6-0.1-1.1-0.3-1.3
	c-0.1-0.1-0.3-0.2-0.6-0.2c-0.3,0-0.5,0.1-0.6,0.2c-0.2,0.2-0.3,0.7-0.3,1.3c0,0.3,0,0.6,0,0.9v0.9H39c-0.2,0-0.4,0-0.7,0
	c-0.5,0-1,0-1.4,0c-1.8-0.2-3-1.4-3-3.3c0-1.7,0-3.4,0-5.1l0-1.6v-2.3c0-5.8,0-11.6,0-17.4c0-2.4,1.1-3.6,3.6-3.6h19.1
	c2.8,0,5.5,0,8.3,0c2.4,0,3.6,1.1,3.6,3.6c0,5.8,0,11.6,0,17.4v2.3v1.6C68.5,48.8,68.5,50.6,68.5,52.3z"/>
<path class="st1" d="M63.9,24.8c-8.5,0-16.9,0-25.4,0c-1.2,0-1.4,0.2-1.4,1.4c0,6.1,0,12.3,0,18.4c0,1.3,0.3,1.4,1.4,1.4
	c1.2,0,2.4,0,3.6,0l1.6,0H44l0.1,0.3c1.4,4.1,3.7,6,7,6c0,0,0.1,0,0.1,0c3.4,0,5.6-1.9,7.1-6l0.1-0.2h1.7c1.2,0,2.5,0,3.7,0
	c1.3,0,1.5-0.3,1.5-1.4c0-6.1,0-12.2,0-18.3C65.4,25,65.2,24.8,63.9,24.8 M63.6,44.3h-2c-1.2,0-2.5,0-3.7,0c-1,0-1.2,0.2-1.3,1.2
	c-0.2,2.8-2.5,5.1-5.4,5.1c0,0,0,0,0,0c-2.8,0-5.1-2.2-5.3-5c-0.1-1.1-0.3-1.2-1.3-1.2c-1.2,0-2.4,0-3.7,0h-2V26.7h24.7V44.3z"/>
<path class="st2" d="M63.9,24.8c-8.5,0-16.9,0-25.4,0c-1.2,0-1.4,0.2-1.4,1.4c0,6.1,0,12.3,0,18.4c0,1.3,0.3,1.4,1.4,1.4
	c1.2,0,2.4,0,3.6,0l1.6,0H44l0.1,0.3c1.4,4.1,3.7,6,7,6c0,0,0.1,0,0.1,0c3.4,0,5.6-1.9,7.1-6l0.1-0.2h1.7c1.2,0,2.5,0,3.7,0
	c1.3,0,1.5-0.3,1.5-1.4c0-6.1,0-12.2,0-18.3C65.4,25,65.2,24.8,63.9,24.8z M63.6,44.3h-2c-1.2,0-2.5,0-3.7,0c-1,0-1.2,0.2-1.3,1.2
	c-0.2,2.8-2.5,5.1-5.4,5.1c0,0,0,0,0,0c-2.8,0-5.1-2.2-5.3-5c-0.1-1.1-0.3-1.2-1.3-1.2c-1.2,0-2.4,0-3.7,0h-2V26.7h24.7V44.3z"/>
<path class="st1" d="M45.3,35.5c0.6-0.2,1.3-0.5,1.9-0.7c0.2-0.1,0.4-0.2,0.7-0.3l1.1-0.4c1.2-0.5,2.5-0.9,3.7-1.4
	c0.5-0.2,0.7-0.5,0.6-1c-0.1-0.3-0.2-0.6-0.9-0.7c0,0-0.1,0-0.1,0c-0.1,0-0.2,0-0.2,0.1l-1.5,0.6c-1.9,0.7-3.9,1.5-5.9,2.2
	c-0.3,0.1-0.4,0.3-0.5,0.5c-0.1,0.2-0.1,0.5,0,0.7C44.4,35.5,44.8,35.7,45.3,35.5"/>
<path class="st2" d="M45.3,35.5c0.6-0.2,1.3-0.5,1.9-0.7c0.2-0.1,0.4-0.2,0.7-0.3l1.1-0.4c1.2-0.5,2.5-0.9,3.7-1.4
	c0.5-0.2,0.7-0.5,0.6-1c-0.1-0.3-0.2-0.6-0.9-0.7c0,0-0.1,0-0.1,0c-0.1,0-0.2,0-0.2,0.1l-1.5,0.6c-1.9,0.7-3.9,1.5-5.9,2.2
	c-0.3,0.1-0.4,0.3-0.5,0.5c-0.1,0.2-0.1,0.5,0,0.7C44.4,35.5,44.8,35.7,45.3,35.5z"/>
<path class="st1" d="M51.2,38.8c0.1,0.3,0.2,0.7,0.9,0.7c0,0,0.1,0,0.1,0c0.1,0,0.3-0.1,0.4-0.1l0,0c2.3-0.8,4.6-1.7,6.9-2.6
	c0.4-0.1,0.6-0.4,0.8-0.6c0.1-0.2,0.1-0.4,0-0.7c-0.2-0.4-0.5-0.5-0.8-0.5c-0.2,0-0.4,0.1-0.6,0.1c-1.2,0.5-2.5,0.9-3.7,1.4
	l-1.6,0.6c-0.2,0.1-0.4,0.1-0.6,0.2c-0.4,0.2-0.9,0.3-1.3,0.5C51.2,38,51.1,38.3,51.2,38.8"/>
<path class="st2" d="M51.2,38.8c0.1,0.3,0.2,0.7,0.9,0.7c0,0,0.1,0,0.1,0c0.1,0,0.3-0.1,0.4-0.1l0,0c2.3-0.8,4.6-1.7,6.9-2.6
	c0.4-0.1,0.6-0.4,0.8-0.6c0.1-0.2,0.1-0.4,0-0.7c-0.2-0.4-0.5-0.5-0.8-0.5c-0.2,0-0.4,0.1-0.6,0.1c-1.2,0.5-2.5,0.9-3.7,1.4
	l-1.6,0.6c-0.2,0.1-0.4,0.1-0.6,0.2c-0.4,0.2-0.9,0.3-1.3,0.5C51.2,38,51.1,38.3,51.2,38.8z"/>
</svg>
