<?xml version="1.0" encoding="utf-8"?>
<!-- Generator: Adobe Illustrator 23.0.4, SVG Export Plug-In . SVG Version: 6.00 Build 0)  -->
<svg version="1.1" id="Capa_1" xmlns="http://www.w3.org/2000/svg" xmlns:xlink="http://www.w3.org/1999/xlink" x="0px" y="0px"
	 width="102px" height="102px" viewBox="0 0 102 102" style="enable-background:new 0 0 102 102;" xml:space="preserve">
<style type="text/css">
	.st0{fill:#BF0D15;}
	.st1{fill-rule:evenodd;clip-rule:evenodd;fill:#FFFFFF;}
	.st2{fill:#FFFFFF;}
	.st3{fill:none;stroke:#BE0D1D;stroke-width:0.5;stroke-miterlimit:10;}
</style>
<path class="st0" d="M386.1,1343c0,27.2-22,49.2-49.2,49.2c-27.2,0-49.2-22-49.2-49.2c0-27.2,22-49.2,49.2-49.2
	C364.1,1293.8,386.1,1315.8,386.1,1343"/>
<path class="st1" d="M314,1322v9.1c0,0.7,0.3,1.3,0.7,1.8c0.5,0.5,1.1,0.7,1.8,0.7h37.9c0.7,0,1.3-0.3,1.8-0.7
	c0.5-0.5,0.7-1.1,0.7-1.8v-2.8v-3.5v-2.8c0-0.7-0.3-1.3-0.7-1.8c-0.5-0.5-1.1-0.7-1.8-0.7h-37.9c-0.7,0-1.3,0.3-1.8,0.7l0,0
	C314.2,1320.7,314,1321.3,314,1322 M337.7,1351.7c0.6,0.2,1.2,0.5,1.7,1c0.7,0.7,1.1,1.6,1.1,2.7v16.6c0,1-0.4,2-1.1,2.7l0,0
	c-0.7,0.7-1.6,1.1-2.7,1.1h-2.5c-1,0-2-0.4-2.7-1.1c-0.7-0.7-1.1-1.6-1.1-2.7v-16.6c0-1,0.4-2,1.1-2.7v0l0,0l0,0
	c0.5-0.5,1-0.8,1.7-1v-8.4v-1.6c0-0.3,0.3-0.6,0.6-0.6h1.6h24.7v-12.1h-2v2.2c0,1-0.4,2-1.1,2.7c-0.7,0.7-1.6,1.1-2.7,1.1h-37.9
	c-1,0-2-0.4-2.7-1.1c-0.7-0.7-1.1-1.6-1.1-2.7v-9.1c0-1,0.4-2,1.1-2.7l0,0c0.7-0.7,1.6-1.1,2.7-1.1h37.9c1,0,2,0.4,2.7,1.1h0l0,0
	c0.7,0.7,1.1,1.6,1.1,2.7v2.2h5.9c0.3,0,0.6,0.3,0.6,0.6v1.6v1.8v15v1.6c0,0.3-0.3,0.6-0.6,0.6h-1.6h-24.7V1351.7z M334.2,1352.8
	c-0.7,0-1.3,0.3-1.8,0.7l0,0c-0.5,0.5-0.7,1.1-0.7,1.8v16.6c0,0.7,0.3,1.3,0.7,1.8c0.5,0.5,1.1,0.7,1.8,0.7h2.5
	c0.7,0,1.3-0.3,1.8-0.7l0,0c0.5-0.5,0.7-1.1,0.7-1.8v-16.6c0-0.7-0.3-1.3-0.7-1.8c-0.5-0.5-1.1-0.7-1.8-0.7H334.2z M334.4,1351.5
	v-8.3v-1h1h25.3c0.3,0,0.6-0.3,0.6-0.6v-13.4c0-0.3-0.3-0.6-0.6-0.6h-2.6v-2.2h5.2v1v1.8v15v1h-1h-25.3c-0.3,0-0.6,0.3-0.6,0.6v6.6
	H334.4z"/>
<path class="st0" d="M386.1,1343c0,27.2-22,49.2-49.2,49.2c-27.2,0-49.2-22-49.2-49.2c0-27.2,22-49.2,49.2-49.2
	C364.1,1293.8,386.1,1315.8,386.1,1343"/>
<path class="st1" d="M314,1322v9.1c0,0.7,0.3,1.3,0.7,1.8c0.5,0.5,1.1,0.7,1.8,0.7h37.9c0.7,0,1.3-0.3,1.8-0.7
	c0.5-0.5,0.7-1.1,0.7-1.8v-2.8v-3.5v-2.8c0-0.7-0.3-1.3-0.7-1.8c-0.5-0.5-1.1-0.7-1.8-0.7h-37.9c-0.7,0-1.3,0.3-1.8,0.7l0,0
	C314.2,1320.7,314,1321.3,314,1322 M337.7,1351.7c0.6,0.2,1.2,0.5,1.7,1c0.7,0.7,1.1,1.6,1.1,2.7v16.6c0,1-0.4,2-1.1,2.7l0,0
	c-0.7,0.7-1.6,1.1-2.7,1.1h-2.5c-1,0-2-0.4-2.7-1.1c-0.7-0.7-1.1-1.6-1.1-2.7v-16.6c0-1,0.4-2,1.1-2.7v0l0,0l0,0
	c0.5-0.5,1-0.8,1.7-1v-8.4v-1.6c0-0.3,0.3-0.6,0.6-0.6h1.6h24.7v-12.1h-2v2.2c0,1-0.4,2-1.1,2.7c-0.7,0.7-1.6,1.1-2.7,1.1h-37.9
	c-1,0-2-0.4-2.7-1.1c-0.7-0.7-1.1-1.6-1.1-2.7v-9.1c0-1,0.4-2,1.1-2.7l0,0c0.7-0.7,1.6-1.1,2.7-1.1h37.9c1,0,2,0.4,2.7,1.1h0l0,0
	c0.7,0.7,1.1,1.6,1.1,2.7v2.2h5.9c0.3,0,0.6,0.3,0.6,0.6v1.6v1.8v15v1.6c0,0.3-0.3,0.6-0.6,0.6h-1.6h-24.7V1351.7z M334.2,1352.8
	c-0.7,0-1.3,0.3-1.8,0.7l0,0c-0.5,0.5-0.7,1.1-0.7,1.8v16.6c0,0.7,0.3,1.3,0.7,1.8c0.5,0.5,1.1,0.7,1.8,0.7h2.5
	c0.7,0,1.3-0.3,1.8-0.7l0,0c0.5-0.5,0.7-1.1,0.7-1.8v-16.6c0-0.7-0.3-1.3-0.7-1.8c-0.5-0.5-1.1-0.7-1.8-0.7H334.2z M334.4,1351.5
	v-8.3v-1h1h25.3c0.3,0,0.6-0.3,0.6-0.6v-13.4c0-0.3-0.3-0.6-0.6-0.6h-2.6v-2.2h5.2v1v1.8v15v1h-1h-25.3c-0.3,0-0.6,0.3-0.6,0.6v6.6
	H334.4z"/>
<g>
	<path class="st0" d="M100.2,51c0,27.2-22,49.2-49.2,49.2c-27.2,0-49.2-22-49.2-49.2c0-27.2,22-49.2,49.2-49.2
		C78.2,1.8,100.2,23.8,100.2,51"/>
	<path class="st2" d="M78,61.1l-9-8.9c0,0,0,0,0,0l0.9-0.9c0.8-0.8,1.2-1.9,1.2-3s-0.4-2.2-1.2-3c-0.5-0.5-1-0.8-1.6-1
		c0.4-0.9,0.5-1.7,0.5-2.2c0-1.2-0.5-2.4-1.4-3.3c-0.7-0.7-1.5-1.1-2.4-1.2c0.1-0.4,0.1-0.7,0.1-1.1c0-1.1-0.5-2.2-1.3-3
		c-0.7-0.7-1.6-1.1-2.6-1.2c0.1-0.3,0.1-0.6,0.1-0.9c0-1.1-0.5-2.3-1.2-3c-0.8-0.8-1.7-1.2-3.3-1.2c0,0-2.6-2.6-2.6-2.6
		c-0.8-0.8-1.9-1.2-3-1.2c-1.1,0-2.2,0.4-3,1.2c-0.8,0.8-1.2,1.8-1.2,2.8c0,0-3-3.3-6.2-0.2c-1.1,1.1-1.5,2.6-1.1,4
		c-0.9,0.1-1.9,0.5-2.6,1.2c-1.1,1.1-1.5,2.7-1.1,4.1c-0.9,0.1-1.7,0.5-2.4,1.2c-1.5,1.5-1.6,3.7-0.5,5.4c-0.7,0.2-1.4,0.5-1.9,1.1
		c-0.8,0.8-1.2,1.9-1.2,3c0,1.1,0.4,2.2,1.2,3l1.4,1.4l-9.4,9.4c-0.4,0.4-0.4,1.1,0,1.5l11.1,11.1c0.4,0.4,1.1,0.4,1.5,0l7.5-7.5
		c0.6-0.6,1.4-0.9,2.3-0.9l7.5,0.3c0.6,0,1.3-0.1,1.9-0.3l9.3,9.3c0.4,0.4,1.1,0.4,1.5,0l2.5-2.5c0.4-0.4,0.4-1.1,0-1.5
		c-0.4-0.4-1.1-0.4-1.5,0l-1.8,1.8l-2-2l10.3-10.3l2,2l-1.6,1.6c-0.4,0.4-0.4,1.1-0.1,1.5c0.4,0.5,1.2,0.5,1.6,0.1l2.3-2.3
		C78.4,62.2,78.4,61.5,78,61.1 M49.9,26c0.4-0.4,0.9-0.6,1.4-0.6c0.5,0,1.1,0.2,1.4,0.6l1.9,1.9c-0.2,0.1-2.9,2.9-2.9,2.9l-1.9-1.9
		c-0.4-0.4-0.6-0.9-0.6-1.4C49.3,26.9,49.5,26.4,49.9,26 M42.5,28.7c0.4-0.4,0.9-0.6,1.4-0.6c0.5,0,1.1,0.2,1.4,0.6l6.2,6.2
		c0.4,0.4,0.6,0.9,0.6,1.4c0,0.5-0.2,1.1-0.6,1.4c-0.4,0.4-0.9,0.6-1.4,0.6c-0.5,0-1.1-0.2-1.4-0.6l-6.2-6.2
		c-0.4-0.4-0.6-0.9-0.6-1.4C41.9,29.6,42.1,29,42.5,28.7 M38.8,33.9c0.4-0.4,0.9-0.6,1.4-0.6c0.5,0,1,0.2,1.4,0.6l5.5,5.5
		c0.4,0.4,0.6,0.9,0.6,1.4c0,0.5-0.2,1.1-0.6,1.4c-0.7,0.7-1.8,0.8-2.6,0.2c-0.1-0.1-5.8-5.7-5.8-5.7C38,35.9,38,34.6,38.8,33.9
		 M35.3,39.1c0.4-0.4,0.9-0.6,1.4-0.6c0.4,0,0.8,0.1,1.1,0.3c0,0,5.1,5.1,5.2,5.2c0.2,0.3,0.4,0.7,0.4,1.2c0,0.5-0.2,1.1-0.6,1.4
		c-0.4,0.4-0.9,0.6-1.4,0.6c-0.5,0-1.1-0.2-1.4-0.6L35.3,42C34.5,41.2,34.5,39.9,35.3,39.1 M32.9,45.6c0.4-0.4,0.9-0.6,1.4-0.6
		c0.5,0,1.1,0.2,1.4,0.6l2.6,2.6c0.4,0.4,0.6,0.9,0.6,1.4c0,0.5-0.2,1.1-0.6,1.4c-0.4,0.4-0.9,0.6-1.4,0.6c-0.5,0-1.1-0.2-1.4-0.6
		l-2.6-2.6c-0.4-0.4-0.6-0.9-0.6-1.4C32.3,46.5,32.5,46,32.9,45.6 M35.2,71.3l-9.6-9.6l1.9-1.9l9.6,9.6L35.2,71.3z M53.4,63.3
		L45.9,63c-1.5-0.1-2.9,0.5-3.9,1.5l-3.3,3.3l-9.6-9.6l5.2-5.2c0.8,0.6,1.7,0.9,2.6,0.9c1.1,0,2.2-0.4,3-1.2
		c0.8-0.8,1.2-1.7,1.2-3.2c1.6,0,2.4-0.4,3.2-1.2c0.9-0.9,1.3-2,1.2-3.2c1.4,0,2.3-0.4,3.2-1.2c0.8-0.8,1.2-1.9,1.2-3.2
		c1.5,0,2.4-0.4,3.2-1.2c3.1-3.1-0.4-6.4-0.4-6.4l3.1-3c0.4-0.4,0.9-0.6,1.4-0.6c0.5,0,1.1,0.2,1.4,0.6c0.4,0.4,0.6,0.9,0.6,1.5
		c0,0.6-0.3,1.2-0.7,1.6c-0.2,0.1-0.4,0.3-0.6,0.5c-0.4,0.4-0.4,1.1,0,1.5c0.4,0.4,1.1,0.4,1.5,0c0.4-0.4,0.9-0.6,1.4-0.6
		c0.5,0,1.1,0.2,1.4,0.6c0.4,0.4,0.6,0.9,0.6,1.5c0,0.6-0.1,1-0.7,1.6c-0.3,0.2-0.6,0.4-0.9,0.7c-0.4,0.4-0.4,1.1,0,1.5
		c0.4,0.4,1.1,0.4,1.5,0c0.8-0.8,2.1-0.8,2.9,0c0.3,0.3,1.8,2-0.5,4.2c-0.6,0.4-0.7,0.5-1.3,1c-0.5,0.4-0.4,1.1,0,1.5
		c0.4,0.4,1.1,0.4,1.5,0c0.7-0.7,1.9-1.1,2.7-0.2c0.4,0.4,0.6,0.9,0.6,1.4c0,0.5-0.2,1.1-0.6,1.4L55.7,62.4
		C55.1,63,54.3,63.3,53.4,63.3L53.4,63.3z M61.8,68.7L57.1,64c0,0,10.3-10.3,10.3-10.3c0,0,0,0,0,0l4.7,4.7L61.8,68.7z"/>
	<path class="st3" d="M78,61.1l-9-8.9c0,0,0,0,0,0l0.9-0.9c0.8-0.8,1.2-1.9,1.2-3s-0.4-2.2-1.2-3c-0.5-0.5-1-0.8-1.6-1
		c0.4-0.9,0.5-1.7,0.5-2.2c0-1.2-0.5-2.4-1.4-3.3c-0.7-0.7-1.5-1.1-2.4-1.2c0.1-0.4,0.1-0.7,0.1-1.1c0-1.1-0.5-2.2-1.3-3
		c-0.7-0.7-1.6-1.1-2.6-1.2c0.1-0.3,0.1-0.6,0.1-0.9c0-1.1-0.5-2.3-1.2-3c-0.8-0.8-1.7-1.2-3.3-1.2c0,0-2.6-2.6-2.6-2.6
		c-0.8-0.8-1.9-1.2-3-1.2c-1.1,0-2.2,0.4-3,1.2c-0.8,0.8-1.2,1.8-1.2,2.8c0,0-3-3.3-6.2-0.2c-1.1,1.1-1.5,2.6-1.1,4
		c-0.9,0.1-1.9,0.5-2.6,1.2c-1.1,1.1-1.5,2.7-1.1,4.1c-0.9,0.1-1.7,0.5-2.4,1.2c-1.5,1.5-1.6,3.7-0.5,5.4c-0.7,0.2-1.4,0.5-1.9,1.1
		c-0.8,0.8-1.2,1.9-1.2,3c0,1.1,0.4,2.2,1.2,3l1.4,1.4l-9.4,9.4c-0.4,0.4-0.4,1.1,0,1.5l11.1,11.1c0.4,0.4,1.1,0.4,1.5,0l7.5-7.5
		c0.6-0.6,1.4-0.9,2.3-0.9l7.5,0.3c0.6,0,1.3-0.1,1.9-0.3l9.3,9.3c0.4,0.4,1.1,0.4,1.5,0l2.5-2.5c0.4-0.4,0.4-1.1,0-1.5
		c-0.4-0.4-1.1-0.4-1.5,0l-1.8,1.8l-2-2l10.3-10.3l2,2l-1.6,1.6c-0.4,0.4-0.4,1.1-0.1,1.5c0.4,0.5,1.2,0.5,1.6,0.1l2.3-2.3
		C78.4,62.2,78.4,61.5,78,61.1z M49.9,26c0.4-0.4,0.9-0.6,1.4-0.6c0.5,0,1.1,0.2,1.4,0.6l1.9,1.9c-0.2,0.1-2.9,2.9-2.9,2.9l-1.9-1.9
		c-0.4-0.4-0.6-0.9-0.6-1.4C49.3,26.9,49.5,26.4,49.9,26z M42.5,28.7c0.4-0.4,0.9-0.6,1.4-0.6c0.5,0,1.1,0.2,1.4,0.6l6.2,6.2
		c0.4,0.4,0.6,0.9,0.6,1.4c0,0.5-0.2,1.1-0.6,1.4c-0.4,0.4-0.9,0.6-1.4,0.6c-0.5,0-1.1-0.2-1.4-0.6l-6.2-6.2
		c-0.4-0.4-0.6-0.9-0.6-1.4C41.9,29.6,42.1,29,42.5,28.7z M38.8,33.9c0.4-0.4,0.9-0.6,1.4-0.6c0.5,0,1,0.2,1.4,0.6l5.5,5.5
		c0.4,0.4,0.6,0.9,0.6,1.4c0,0.5-0.2,1.1-0.6,1.4c-0.7,0.7-1.8,0.8-2.6,0.2c-0.1-0.1-5.8-5.7-5.8-5.7C38,35.9,38,34.6,38.8,33.9z
		 M35.3,39.1c0.4-0.4,0.9-0.6,1.4-0.6c0.4,0,0.8,0.1,1.1,0.3c0,0,5.1,5.1,5.2,5.2c0.2,0.3,0.4,0.7,0.4,1.2c0,0.5-0.2,1.1-0.6,1.4
		c-0.4,0.4-0.9,0.6-1.4,0.6c-0.5,0-1.1-0.2-1.4-0.6L35.3,42C34.5,41.2,34.5,39.9,35.3,39.1z M32.9,45.6c0.4-0.4,0.9-0.6,1.4-0.6
		c0.5,0,1.1,0.2,1.4,0.6l2.6,2.6c0.4,0.4,0.6,0.9,0.6,1.4c0,0.5-0.2,1.1-0.6,1.4c-0.4,0.4-0.9,0.6-1.4,0.6c-0.5,0-1.1-0.2-1.4-0.6
		l-2.6-2.6c-0.4-0.4-0.6-0.9-0.6-1.4C32.3,46.5,32.5,46,32.9,45.6z M35.2,71.3l-9.6-9.6l1.9-1.9l9.6,9.6L35.2,71.3z M53.4,63.3
		L45.9,63c-1.5-0.1-2.9,0.5-3.9,1.5l-3.3,3.3l-9.6-9.6l5.2-5.2c0.8,0.6,1.7,0.9,2.6,0.9c1.1,0,2.2-0.4,3-1.2
		c0.8-0.8,1.2-1.7,1.2-3.2c1.6,0,2.4-0.4,3.2-1.2c0.9-0.9,1.3-2,1.2-3.2c1.4,0,2.3-0.4,3.2-1.2c0.8-0.8,1.2-1.9,1.2-3.2
		c1.5,0,2.4-0.4,3.2-1.2c3.1-3.1-0.4-6.4-0.4-6.4l3.1-3c0.4-0.4,0.9-0.6,1.4-0.6c0.5,0,1.1,0.2,1.4,0.6c0.4,0.4,0.6,0.9,0.6,1.5
		c0,0.6-0.3,1.2-0.7,1.6c-0.2,0.1-0.4,0.3-0.6,0.5c-0.4,0.4-0.4,1.1,0,1.5c0.4,0.4,1.1,0.4,1.5,0c0.4-0.4,0.9-0.6,1.4-0.6
		c0.5,0,1.1,0.2,1.4,0.6c0.4,0.4,0.6,0.9,0.6,1.5c0,0.6-0.1,1-0.7,1.6c-0.3,0.2-0.6,0.4-0.9,0.7c-0.4,0.4-0.4,1.1,0,1.5
		c0.4,0.4,1.1,0.4,1.5,0c0.8-0.8,2.1-0.8,2.9,0c0.3,0.3,1.8,2-0.5,4.2c-0.6,0.4-0.7,0.5-1.3,1c-0.5,0.4-0.4,1.1,0,1.5
		c0.4,0.4,1.1,0.4,1.5,0c0.7-0.7,1.9-1.1,2.7-0.2c0.4,0.4,0.6,0.9,0.6,1.4c0,0.5-0.2,1.1-0.6,1.4L55.7,62.4
		C55.1,63,54.3,63.3,53.4,63.3L53.4,63.3z M61.8,68.7L57.1,64c0,0,10.3-10.3,10.3-10.3c0,0,0,0,0,0l4.7,4.7L61.8,68.7z"/>
	<path class="st2" d="M71.3,66.6c0.6,0,1.1,0.5,1.1,1.1c0,0.6-0.5,1.1-1.1,1.1c-0.6,0-1.1-0.5-1.1-1.1
		C70.3,67.1,70.7,66.6,71.3,66.6"/>
	<path class="st3" d="M71.3,66.6c0.6,0,1.1,0.5,1.1,1.1c0,0.6-0.5,1.1-1.1,1.1c-0.6,0-1.1-0.5-1.1-1.1
		C70.3,67.1,70.7,66.6,71.3,66.6z"/>
</g>
</svg>
