<?xml version="1.0" encoding="utf-8"?>
<!-- Generator: Adobe Illustrator 23.0.4, SVG Export Plug-In . SVG Version: 6.00 Build 0)  -->
<svg version="1.1" id="Capa_1" xmlns="http://www.w3.org/2000/svg" xmlns:xlink="http://www.w3.org/1999/xlink" x="0px" y="0px"
	 width="125px" height="125px" viewBox="0 0 125 125" style="enable-background:new 0 0 125 125;" xml:space="preserve">
<style type="text/css">
	.st0{fill:#BF0D15;}
	.st1{fill-rule:evenodd;clip-rule:evenodd;fill:#FFFFFF;}
</style>
<path class="st0" d="M399.3,1360.3c0,27.2-22,49.2-49.2,49.2c-27.2,0-49.2-22-49.2-49.2c0-27.2,22-49.2,49.2-49.2
	C377.2,1311.1,399.3,1333.2,399.3,1360.3"/>
<path class="st1" d="M327.1,1339.4v9.1c0,0.7,0.3,1.3,0.7,1.8c0.5,0.5,1.1,0.7,1.8,0.7h37.9c0.7,0,1.3-0.3,1.8-0.7
	c0.5-0.5,0.7-1.1,0.7-1.8v-2.8v-3.5v-2.8c0-0.7-0.3-1.3-0.7-1.8c-0.5-0.5-1.1-0.7-1.8-0.7h-37.9c-0.7,0-1.3,0.3-1.8,0.7l0,0
	C327.4,1338.1,327.1,1338.7,327.1,1339.4 M350.8,1369c0.6,0.2,1.2,0.5,1.7,1c0.7,0.7,1.1,1.6,1.1,2.7v16.6c0,1-0.4,2-1.1,2.7l0,0
	c-0.7,0.7-1.6,1.1-2.7,1.1h-2.5c-1,0-2-0.4-2.7-1.1c-0.7-0.7-1.1-1.6-1.1-2.7v-16.6c0-1,0.4-2,1.1-2.7v0l0,0l0,0
	c0.5-0.5,1-0.8,1.7-1v-8.4v-1.6c0-0.3,0.3-0.6,0.6-0.6h1.6h24.7v-12.1h-2v2.2c0,1-0.4,2-1.1,2.7c-0.7,0.7-1.6,1.1-2.7,1.1h-37.9
	c-1,0-2-0.4-2.7-1.1c-0.7-0.7-1.1-1.6-1.1-2.7v-9.1c0-1,0.4-2,1.1-2.7l0,0c0.7-0.7,1.6-1.1,2.7-1.1h37.9c1,0,2,0.4,2.7,1.1h0l0,0
	c0.7,0.7,1.1,1.6,1.1,2.7v2.2h5.9c0.3,0,0.6,0.3,0.6,0.6v1.6v1.8v15v1.6c0,0.3-0.3,0.6-0.6,0.6h-1.6h-24.7V1369z M347.3,1370.2
	c-0.7,0-1.3,0.3-1.8,0.7l0,0c-0.5,0.5-0.7,1.1-0.7,1.8v16.6c0,0.7,0.3,1.3,0.7,1.8c0.5,0.5,1.1,0.7,1.8,0.7h2.5
	c0.7,0,1.3-0.3,1.8-0.7l0,0c0.5-0.5,0.7-1.1,0.7-1.8v-16.6c0-0.7-0.3-1.3-0.7-1.8c-0.5-0.5-1.1-0.7-1.8-0.7H347.3z M347.6,1368.9
	v-8.3v-1h1h25.3c0.3,0,0.6-0.3,0.6-0.6v-13.4c0-0.3-0.3-0.6-0.6-0.6h-2.6v-2.2h5.2v1v1.8v15v1h-1h-25.3c-0.3,0-0.6,0.3-0.6,0.6v6.6
	H347.6z"/>
<path class="st0" d="M399.3,1360.3c0,27.2-22,49.2-49.2,49.2c-27.2,0-49.2-22-49.2-49.2c0-27.2,22-49.2,49.2-49.2
	C377.2,1311.1,399.3,1333.2,399.3,1360.3"/>
<path class="st1" d="M327.1,1339.4v9.1c0,0.7,0.3,1.3,0.7,1.8c0.5,0.5,1.1,0.7,1.8,0.7h37.9c0.7,0,1.3-0.3,1.8-0.7
	c0.5-0.5,0.7-1.1,0.7-1.8v-2.8v-3.5v-2.8c0-0.7-0.3-1.3-0.7-1.8c-0.5-0.5-1.1-0.7-1.8-0.7h-37.9c-0.7,0-1.3,0.3-1.8,0.7l0,0
	C327.4,1338.1,327.1,1338.7,327.1,1339.4 M350.8,1369c0.6,0.2,1.2,0.5,1.7,1c0.7,0.7,1.1,1.6,1.1,2.7v16.6c0,1-0.4,2-1.1,2.7l0,0
	c-0.7,0.7-1.6,1.1-2.7,1.1h-2.5c-1,0-2-0.4-2.7-1.1c-0.7-0.7-1.1-1.6-1.1-2.7v-16.6c0-1,0.4-2,1.1-2.7v0l0,0l0,0
	c0.5-0.5,1-0.8,1.7-1v-8.4v-1.6c0-0.3,0.3-0.6,0.6-0.6h1.6h24.7v-12.1h-2v2.2c0,1-0.4,2-1.1,2.7c-0.7,0.7-1.6,1.1-2.7,1.1h-37.9
	c-1,0-2-0.4-2.7-1.1c-0.7-0.7-1.1-1.6-1.1-2.7v-9.1c0-1,0.4-2,1.1-2.7l0,0c0.7-0.7,1.6-1.1,2.7-1.1h37.9c1,0,2,0.4,2.7,1.1h0l0,0
	c0.7,0.7,1.1,1.6,1.1,2.7v2.2h5.9c0.3,0,0.6,0.3,0.6,0.6v1.6v1.8v15v1.6c0,0.3-0.3,0.6-0.6,0.6h-1.6h-24.7V1369z M347.3,1370.2
	c-0.7,0-1.3,0.3-1.8,0.7l0,0c-0.5,0.5-0.7,1.1-0.7,1.8v16.6c0,0.7,0.3,1.3,0.7,1.8c0.5,0.5,1.1,0.7,1.8,0.7h2.5
	c0.7,0,1.3-0.3,1.8-0.7l0,0c0.5-0.5,0.7-1.1,0.7-1.8v-16.6c0-0.7-0.3-1.3-0.7-1.8c-0.5-0.5-1.1-0.7-1.8-0.7H347.3z M347.6,1368.9
	v-8.3v-1h1h25.3c0.3,0,0.6-0.3,0.6-0.6v-13.4c0-0.3-0.3-0.6-0.6-0.6h-2.6v-2.2h5.2v1v1.8v15v1h-1h-25.3c-0.3,0-0.6,0.3-0.6,0.6v6.6
	H347.6z"/>
<g>
	<path class="st0" d="M120.4,62.5c0,32-25.9,57.9-57.9,57.9S4.6,94.5,4.6,62.5c0-32,25.9-57.9,57.9-57.9S120.4,30.5,120.4,62.5"/>
	<path class="st1" d="M70.3,45.5c-1.7-1.7-3.7-3-5.9-3.9c-2.1-0.9-4.5-1.4-6.9-1.4c-2.5,0-4.8,0.5-6.9,1.4c-2.2,0.9-4.2,2.3-5.9,3.9
		c-1.7,1.7-3,3.7-3.9,5.9c-0.9,2.1-1.4,4.5-1.4,6.9c0,2.5,0.5,4.8,1.4,6.9c0.9,2.2,2.3,4.2,3.9,5.9h0c1.7,1.7,3.7,3,5.9,3.9
		c2.1,0.9,4.5,1.4,6.9,1.4c2.5,0,4.8-0.5,6.9-1.4c2.2-0.9,4.2-2.3,5.9-3.9c1.7-1.7,3-3.7,3.9-5.9c0.9-2.1,1.4-4.5,1.4-6.9
		s-0.5-4.8-1.4-6.9C73.3,49.2,72,47.2,70.3,45.5 M79.8,72.4l13.3,13.3l0,0.1c0.9,0.9,1.4,2.2,1.4,3.4h0c0,1.2-0.5,2.5-1.4,3.4
		L91.7,94l-0.1,0c-0.9,0.9-2.2,1.4-3.4,1.4c-1.2,0-2.5-0.5-3.4-1.4L71.5,80.7c-4.1,2.6-8.9,4.1-14.1,4.1c-7.3,0-13.9-3-18.7-7.7
		c-4.8-4.8-7.7-11.4-7.7-18.7c0-7.3,3-13.9,7.7-18.7c4.8-4.8,11.4-7.7,18.7-7.7c7.3,0,13.9,3,18.7,7.7c4.8,4.8,7.7,11.4,7.7,18.7
		C83.9,63.5,82.4,68.3,79.8,72.4 M76.9,73.7l-5.7,5.3l0,0l0,0l0,0l0,0c-3.9,2.6-8.6,4.1-13.7,4.1c-6.8,0-13-2.8-17.5-7.3
		c-4.5-4.5-7.3-10.7-7.3-17.5c0-6.8,2.8-13,7.3-17.5c4.5-4.5,10.7-7.3,17.5-7.3c6.8,0,13,2.8,17.5,7.3c4.5,4.5,7.3,10.7,7.3,17.5
		c0,5.1-1.5,9.8-4.1,13.7l0,0C77.7,72.6,77.4,73.2,76.9,73.7 M92,86.8L92,86.8c0.6,0.7,0.9,1.5,0.9,2.3c0,0.8-0.3,1.7-0.9,2.3
		l-1.4,1.4l0,0c-0.6,0.6-1.4,0.9-2.2,0.9c-0.8,0-1.7-0.3-2.3-0.9L72.9,79.7c1.2-0.8,2.2-1.8,3.2-2.8c1-1,1.9-2.1,2.8-3.2L92,86.8z
		 M71.6,78.7l5.4-5.1l0,0.1l0,0.1l-0.1,0.1l0,0.1l0,0.1l0,0.1l0,0l0,0.1l-0.1,0.1l-0.1,0.1l0,0l0,0l-0.1,0.1l-0.1,0.1l0,0.1l0,0l0,0
		c-0.4,0.4-0.8,0.9-1.2,1.3C74,76.9,72.8,77.9,71.6,78.7L71.6,78.7z M65,40c2.4,1,4.6,2.5,6.4,4.3l0,0c1.8,1.8,3.3,4,4.3,6.4
		c1,2.3,1.5,4.9,1.5,7.6c0,2.7-0.5,5.2-1.5,7.6c-1,2.4-2.5,4.6-4.3,6.4c-1.8,1.8-4,3.3-6.4,4.3c-2.3,1-4.9,1.5-7.6,1.5
		c-2.7,0-5.2-0.5-7.6-1.5c-2.4-1-4.6-2.5-6.4-4.3h0c-1.8-1.8-3.3-4-4.3-6.4c-1-2.3-1.5-4.9-1.5-7.6c0-2.7,0.5-5.2,1.5-7.6
		c1-2.4,2.5-4.6,4.3-6.4c1.8-1.8,4-3.3,6.4-4.3c2.3-1,4.9-1.5,7.6-1.5C60.1,38.6,62.7,39.1,65,40"/>
</g>
</svg>
