<?xml version="1.0" encoding="utf-8"?>
<!-- Generator: Adobe Illustrator 23.0.4, SVG Export Plug-In . SVG Version: 6.00 Build 0)  -->
<svg version="1.1" id="Capa_1" xmlns="http://www.w3.org/2000/svg" xmlns:xlink="http://www.w3.org/1999/xlink" x="0px" y="0px"
	 width="163.1px" height="65.2px" viewBox="0 0 163.1 65.2" style="enable-background:new 0 0 163.1 65.2;" xml:space="preserve">
<style type="text/css">
	.st0{fill:#434041;}
	.st1{fill:#D7D9DD;}
	.st2{fill:#5C5B5F;}
	.st3{fill:#AFAEB4;}
	.st4{fill:none;stroke:#FFFFFF;stroke-width:0.1825;stroke-miterlimit:10;}
	.st5{fill:none;stroke:#1F140F;stroke-width:0.365;stroke-miterlimit:10;}
	.st6{fill:#FFFFFF;}
	.st7{fill:#BF0E15;}
	.st8{fill:url(#SVGID_1_);}
	.st9{fill:url(#SVGID_2_);}
</style>
<g>
	<polygon class="st0" points="11.4,24.4 16.5,21.5 16.5,16.8 26.5,9.6 26.5,2 11.4,15.9 	"/>
	<polygon class="st1" points="26.5,61.6 26.5,51.8 36.4,44.1 36.4,16.8 26.5,9.6 26.5,2 41.6,15.9 41.5,47.3 	"/>
	<path class="st2" d="M26.5,15.7c-0.3,0.1-25,14.4-25,14.4v17.2l25,14.3v-9.8L6.7,44.1V33.2l19.8-7.7"/>
	<g>
		<polygon class="st3" points="26.5,15.7 26.5,25.5 36.4,29.4 36.4,21.4 		"/>
	</g>
	<path class="st4" d="M26.5,15.7"/>
	<path class="st5" d="M26.5,41.8"/>
	<g>
		<path class="st6" d="M55.9,44.3h1.9v1.8c-0.1,0.1-0.4,0.3-0.5,0.4c-0.2,0.1-0.4,0.2-0.7,0.3c-0.2,0.1-0.4,0.1-0.7,0.1
			C55.7,47,55.4,47,55.1,47c-0.3,0-0.6,0-0.9-0.1s-0.6-0.1-0.8-0.3c-0.2-0.1-0.5-0.2-0.7-0.4c-0.2-0.1-0.4-0.4-0.5-0.5
			c-0.1-0.2-0.3-0.4-0.4-0.7c-0.1-0.2-0.1-0.4-0.1-0.7c0-0.2,0.1-0.5,0.1-0.7c0.1-0.2,0.2-0.4,0.4-0.7c0.1-0.2,0.3-0.4,0.5-0.5
			s0.4-0.3,0.7-0.4s0.5-0.2,0.8-0.3s0.6-0.1,0.9-0.1c0.5,0,0.9,0.1,1.3,0.2c0.4,0.1,0.8,0.4,1.1,0.6L57,42.7
			c-0.2-0.2-0.5-0.4-0.9-0.5c-0.3-0.1-0.7-0.1-1-0.1s-0.7,0.1-1,0.1c-0.3,0.1-0.6,0.3-0.9,0.4c-0.2,0.2-0.4,0.4-0.6,0.7
			c-0.1,0.3-0.2,0.5-0.2,0.9c0,0.3,0.1,0.6,0.2,0.9c0.1,0.3,0.4,0.5,0.6,0.7c0.2,0.2,0.5,0.4,0.9,0.4c0.3,0.1,0.7,0.1,1,0.1
			c0.1,0,0.4,0,0.5-0.1c0.1,0,0.4-0.1,0.5-0.1c0.1-0.1,0.3-0.1,0.4-0.1c0.1-0.1,0.3-0.1,0.4-0.2v-1.1h-1.1L55.9,44.3L55.9,44.3z"/>
		<path class="st6" d="M59.5,41.7h4.2v0.5h-3.4V44h3v0.5h-3v1.8h3.5v0.5h-4.2L59.5,41.7L59.5,41.7z"/>
		<path class="st6" d="M64.6,45.9C64.7,46,64.8,46,65,46c0.1,0.1,0.3,0.1,0.5,0.1c0.2,0.1,0.4,0.1,0.6,0.1s0.4,0.1,0.7,0.1
			c0.6,0,1.1-0.1,1.4-0.3c0.3-0.1,0.4-0.4,0.4-0.7c0-0.1-0.1-0.3-0.1-0.4c-0.1-0.1-0.2-0.2-0.4-0.3c-0.1-0.1-0.4-0.1-0.6-0.2
			s-0.4-0.1-0.7-0.1c-0.1,0-0.3-0.1-0.5-0.1c-0.1,0-0.4-0.1-0.5-0.1C65.7,44,65.5,44,65.4,44c-0.1-0.1-0.3-0.1-0.4-0.2
			c-0.1-0.1-0.2-0.2-0.3-0.3c0-0.1,0-0.2,0-0.4s0.1-0.4,0.1-0.6c0.1-0.1,0.2-0.4,0.4-0.5c0.2-0.1,0.4-0.2,0.7-0.4
			c0.3-0.1,0.7-0.1,1.1-0.1c0.2,0,0.4,0,0.7,0.1c0.2,0,0.4,0.1,0.6,0.1c0.2,0.1,0.4,0.1,0.5,0.1c0.1,0.1,0.3,0.1,0.4,0.1L69,42.6
			c-0.1-0.1-0.2-0.1-0.4-0.1c-0.1-0.1-0.3-0.1-0.5-0.1c-0.2-0.1-0.4-0.1-0.6-0.1s-0.4-0.1-0.7-0.1c-0.3,0-0.6,0-0.8,0.1
			s-0.4,0.1-0.5,0.2c-0.1,0.1-0.2,0.2-0.3,0.3c0.1,0.2,0.1,0.3,0.1,0.4c0,0.1,0.1,0.3,0.1,0.4c0.1,0.1,0.2,0.1,0.4,0.2
			s0.4,0.1,0.6,0.1c0.2,0.1,0.4,0.1,0.7,0.1c0.1,0,0.4,0.1,0.5,0.1s0.4,0.1,0.5,0.1c0.1,0.1,0.3,0.1,0.4,0.1
			c0.1,0.1,0.3,0.1,0.4,0.3c0.1,0.1,0.2,0.2,0.3,0.4c0.1,0.1,0.1,0.3,0.1,0.5s-0.1,0.4-0.1,0.7c-0.1,0.2-0.3,0.4-0.5,0.4
			c-0.2,0.1-0.5,0.2-0.8,0.3S67.2,47,66.8,47c-0.2,0-0.4,0-0.7-0.1c-0.2,0-0.4-0.1-0.7-0.1s-0.4-0.1-0.6-0.1
			c-0.1-0.1-0.4-0.1-0.5-0.2L64.6,45.9z"/>
		<path class="st6" d="M72.3,42.2h-2v-0.5h4.8v0.5h-2v4.6h-0.7C72.3,46.8,72.3,42.2,72.3,42.2z"/>
		<path class="st6" d="M76.2,41.7H77v5.1h-0.7v-5.1H76.2z"/>
		<path class="st6" d="M78.3,44.3c0-0.2,0.1-0.5,0.1-0.7c0.1-0.2,0.2-0.4,0.4-0.7s0.3-0.4,0.5-0.5s0.4-0.3,0.7-0.4
			c0.2-0.1,0.5-0.2,0.8-0.3s0.6-0.1,0.9-0.1s0.6,0,0.9,0.1s0.6,0.1,0.8,0.3c0.2,0.1,0.5,0.2,0.7,0.4c0.2,0.1,0.4,0.4,0.5,0.5
			c0.1,0.2,0.3,0.4,0.4,0.7c0.1,0.2,0.1,0.4,0.1,0.7c0,0.2-0.1,0.5-0.1,0.7c-0.1,0.2-0.2,0.4-0.4,0.7S84.2,46,84,46.2
			c-0.2,0.1-0.4,0.3-0.7,0.4c-0.2,0.1-0.5,0.2-0.8,0.3S81.9,47,81.6,47s-0.6,0-0.9-0.1s-0.6-0.1-0.8-0.3c-0.2-0.1-0.5-0.2-0.7-0.4
			c-0.2-0.1-0.4-0.4-0.5-0.5c-0.1-0.2-0.3-0.4-0.4-0.7C78.4,44.8,78.3,44.5,78.3,44.3z M79,44.3c0,0.3,0.1,0.6,0.2,0.8
			c0.1,0.3,0.4,0.5,0.6,0.7s0.5,0.4,0.9,0.4c0.3,0.1,0.7,0.1,1,0.1c0.4,0,0.7-0.1,1-0.1c0.3-0.1,0.6-0.3,0.9-0.4
			c0.2-0.2,0.4-0.4,0.6-0.7c0.1-0.3,0.2-0.5,0.2-0.8s-0.1-0.6-0.2-0.9c-0.1-0.3-0.4-0.5-0.6-0.7s-0.5-0.4-0.9-0.4
			c-0.3-0.1-0.7-0.1-1-0.1c-0.4,0-0.7,0.1-1,0.1c-0.3,0.1-0.6,0.3-0.9,0.4c-0.2,0.2-0.4,0.4-0.6,0.7C79.1,43.7,79,44,79,44.3z
			 M82.7,40.1L81.9,41h-0.5l0.8-1L82.7,40.1z"/>
		<path class="st6" d="M91.9,46.8h-0.7l-4-4.1v4.1h-0.7v-5.1H87l4.1,4.1v-4.1h0.7v5.1H91.9z"/>
		<path class="st6" d="M95.7,41.7h0.7v5.1h-0.7V41.7z"/>
		<path class="st6" d="M103.5,46.8h-0.7l-4-4.1v4.1h-0.7v-5.1h0.6l4.1,4.1v-4.1h0.7V46.8L103.5,46.8z"/>
		<path class="st6" d="M108.1,45.1l-2.3-2.4v4.1h-0.7v-5.1h0.7l2.5,2.6l2.5-2.6h0.7v5.1h-0.7v-4.1l-2.3,2.4
			C108.4,45.1,108.1,45.1,108.1,45.1z"/>
		<path class="st6" d="M112.7,44.3c0-0.2,0.1-0.5,0.1-0.7c0.1-0.2,0.2-0.4,0.4-0.7c0.1-0.2,0.3-0.4,0.5-0.5s0.4-0.3,0.7-0.4
			c0.2-0.1,0.5-0.2,0.8-0.3s0.6-0.1,0.9-0.1s0.6,0,0.9,0.1s0.6,0.1,0.8,0.3s0.5,0.2,0.7,0.4c0.2,0.1,0.4,0.4,0.5,0.5
			c0.1,0.2,0.3,0.4,0.4,0.7s0.1,0.4,0.1,0.7c0,0.2-0.1,0.5-0.1,0.7c-0.1,0.2-0.2,0.4-0.4,0.7c-0.1,0.2-0.3,0.4-0.5,0.5
			s-0.4,0.3-0.7,0.4c-0.2,0.1-0.5,0.2-0.8,0.3s-0.6,0.1-0.9,0.1s-0.6,0-0.9-0.1s-0.6-0.1-0.8-0.3c-0.2-0.1-0.5-0.2-0.7-0.4
			c-0.2-0.1-0.4-0.4-0.5-0.5c-0.1-0.2-0.3-0.4-0.4-0.7C112.8,44.8,112.7,44.5,112.7,44.3z M113.5,44.3c0,0.3,0.1,0.6,0.2,0.8
			c0.1,0.3,0.4,0.5,0.6,0.7s0.5,0.4,0.9,0.4c0.3,0.1,0.7,0.1,1,0.1c0.4,0,0.7-0.1,1-0.1c0.3-0.1,0.6-0.3,0.9-0.4
			c0.2-0.2,0.4-0.4,0.6-0.7c0.1-0.3,0.2-0.5,0.2-0.8s-0.1-0.6-0.2-0.9s-0.4-0.5-0.6-0.7s-0.5-0.4-0.9-0.4c-0.3-0.1-0.7-0.1-1-0.1
			c-0.4,0-0.7,0.1-1,0.1c-0.3,0.1-0.6,0.3-0.9,0.4c-0.2,0.2-0.4,0.4-0.6,0.7C113.5,43.7,113.5,44,113.5,44.3z"/>
		<path class="st6" d="M120.9,46.8v-5.1h2.7c0.3,0,0.5,0,0.7,0.1s0.4,0.1,0.6,0.3c0.1,0.1,0.3,0.3,0.4,0.4c0.1,0.1,0.1,0.4,0.1,0.5
			s0,0.2-0.1,0.4s-0.1,0.2-0.1,0.3c-0.1,0.1-0.1,0.1-0.3,0.2c-0.1,0.1-0.2,0.1-0.4,0.1c0.1,0.1,0.4,0.1,0.5,0.1
			c0.1,0.1,0.3,0.1,0.4,0.3c0.1,0.1,0.2,0.2,0.3,0.4c0.1,0.1,0.1,0.3,0.1,0.4c0,0.2-0.1,0.4-0.1,0.6c-0.1,0.1-0.2,0.3-0.4,0.4
			c-0.1,0.1-0.4,0.2-0.6,0.3s-0.4,0.1-0.7,0.1h-3L120.9,46.8L120.9,46.8z M121.6,44h1.9c0.1,0,0.3,0,0.4-0.1s0.2-0.1,0.4-0.1
			c0.1-0.1,0.1-0.1,0.2-0.3c0.1-0.1,0.1-0.2,0.1-0.4c0-0.1,0-0.2-0.1-0.4c-0.1-0.1-0.1-0.2-0.2-0.3s-0.2-0.1-0.4-0.2
			c-0.1-0.1-0.3-0.1-0.4-0.1h-1.9V44z M123.8,46.3c0.1,0,0.3,0,0.4-0.1s0.3-0.1,0.4-0.2c0.1-0.1,0.2-0.2,0.3-0.3
			c0.1-0.1,0.1-0.2,0.1-0.4c0-0.1,0-0.3-0.1-0.4c-0.1-0.1-0.1-0.2-0.2-0.3s-0.2-0.1-0.4-0.2c-0.1-0.1-0.3-0.1-0.4-0.1h-2.2v1.9
			L123.8,46.3L123.8,46.3z"/>
		<path class="st6" d="M127,41.7h0.7v5.1H127V41.7z"/>
		<path class="st6" d="M129.5,41.7h0.7v4.6h3.1v0.5h-3.9L129.5,41.7L129.5,41.7z"/>
		<path class="st6" d="M134.4,41.7h0.7v5.1h-0.7V41.7z"/>
		<path class="st6" d="M140.8,45.6h-3.3l-0.7,1.2H136l2.7-5.1h0.7l2.7,5.1h-0.8L140.8,45.6z M137.9,45.1h2.8l-1.3-2.6v-0.1v0.1
			L137.9,45.1z"/>
		<path class="st6" d="M145.8,44.9h-1.9v1.9h-0.7v-5.1h2.7c0.3,0,0.6,0.1,0.8,0.1c0.3,0.1,0.5,0.2,0.7,0.3s0.4,0.3,0.4,0.5
			s0.1,0.4,0.1,0.7c0,0.2,0,0.4-0.1,0.5s-0.1,0.3-0.3,0.4c-0.1,0.1-0.3,0.2-0.4,0.4c-0.1,0.1-0.4,0.1-0.6,0.2l1.5,2h-0.9L145.8,44.9
			z M145.9,44.4c0.2,0,0.4,0,0.5-0.1s0.3-0.1,0.4-0.2c0.1-0.1,0.2-0.2,0.3-0.4c0.1-0.1,0.1-0.3,0.1-0.4c0-0.1,0-0.3-0.1-0.4
			c-0.1-0.1-0.1-0.2-0.3-0.4c-0.1-0.1-0.3-0.1-0.4-0.2c-0.1-0.1-0.4-0.1-0.6-0.1h-1.9v2.1L145.9,44.4L145.9,44.4z"/>
		<path class="st6" d="M149.2,41.7h0.7v5.1h-0.7V41.7z"/>
		<path class="st6" d="M155.6,45.6h-3.3l-0.7,1.2h-0.8l2.7-5.1h0.7l2.7,5.1h-0.8L155.6,45.6z M152.5,45.1h2.8l-1.3-2.6v-0.1v0.1
			L152.5,45.1z"/>
	</g>
	<path class="st6" d="M70.7,37.3H51.5c0.2-1.8,0.9-3.4,2-5c1.1-1.5,3.2-3.4,6.3-5.5c1.9-1.3,3.1-2.3,3.6-2.9
		c0.5-0.7,0.8-1.3,0.8-1.9c0-0.7-0.3-1.2-0.8-1.7c-0.5-0.4-1.2-0.7-2-0.7s-1.5,0.2-2,0.7c-0.5,0.4-0.9,1.3-1,2.5L52,22.3
		c0.2-1.7,0.7-3,1.4-3.9s1.6-1.7,2.8-2.2s2.9-0.7,5-0.7c2.3,0,4,0.2,5.3,0.7c1.2,0.5,2.3,1.2,2.9,2.2c0.7,0.9,1.1,2.1,1.1,3.3
		c0,1.3-0.4,2.6-1.2,3.7c-0.8,1.2-2.3,2.5-4.5,3.9c-1.3,0.8-2.1,1.4-2.6,1.8c-0.4,0.4-0.9,0.7-1.5,1.3h10
		C70.7,32.4,70.7,37.3,70.7,37.3z"/>
	<path class="st6" d="M77.6,15.9h19.1v4.5H84.8v3.4h11.1v4.4H84.8v4.2H97v4.8H77.6C77.6,37.3,77.6,15.9,77.6,15.9z"/>
	<path class="st7" d="M104,15.9h9.3l3.6,13l3.6-13h9.3v21.4H124V21.1l-4.5,16.3h-5.2l-4.5-16.3v16.3H104V15.9z"/>
	<path class="st7" d="M137.6,15.9h19v4.5h-11.9v3.4h11.1v4.4h-11.1v4.2H157v4.8h-19.3L137.6,15.9L137.6,15.9z"/>
	
		<linearGradient id="SVGID_1_" gradientUnits="userSpaceOnUse" x1="7.9" y1="1021.15" x2="24.4" y2="1021.15" gradientTransform="matrix(1 0 0 1 0 -988)">
		<stop  offset="0" style="stop-color:#FFFFFF"/>
		<stop  offset="1" style="stop-color:#434041"/>
	</linearGradient>
	<polygon class="st8" points="24.4,27.9 7.9,34 7.9,38.4 24.4,38.4 	"/>
	
		<linearGradient id="SVGID_2_" gradientUnits="userSpaceOnUse" x1="7.9" y1="426.6508" x2="24.4" y2="426.6508" gradientTransform="matrix(1 0 0 -1 0 470.8008)">
		<stop  offset="0" style="stop-color:#FFFFFF"/>
		<stop  offset="1" style="stop-color:#434041"/>
	</linearGradient>
	<polygon class="st9" points="24.4,49.4 7.9,43.2 7.9,38.9 24.4,38.9 	"/>
</g>
</svg>
